<svg width="15" height="16" viewBox="0 0 15 16" fill="none" xmlns="http://www.w3.org/2000/svg">
<path d="M14.7962 7.96063C13.8173 0.958763 12.9673 0.49646 7.50376 0.49646C2.03107 0.49646 1.18021 0.957049 0.203723 7.95145C-0.222135 11.0023 0.0111179 12.781 0.98409 13.8998C2.15147 15.2414 4.25554 15.5034 7.49604 15.5034C10.7416 15.5034 12.849 15.2405 14.0168 13.898C14.9889 12.781 15.2221 11.0056 14.7962 7.96063ZM13.0469 13.054C12.2044 14.0231 10.2988 14.2172 7.49664 14.2172C4.69958 14.2172 2.79729 14.0229 1.95526 13.0548C1.26065 12.2573 1.11358 10.7376 1.47795 8.12897C2.36397 1.78312 2.6545 1.78312 7.50419 1.78312C12.3446 1.78312 12.6344 1.78312 13.5229 8.13848C13.8864 10.7418 13.7398 12.2575 13.0469 13.054Z" fill="white"/>
<path d="M9.64378 3.49792C9.47321 3.49792 9.30962 3.56569 9.189 3.6863C9.06838 3.80692 9.00062 3.97051 9.00062 4.14108C9.00062 4.5391 8.84251 4.92081 8.56108 5.20224C8.27964 5.48368 7.89793 5.64179 7.49992 5.64179C7.1019 5.64179 6.72019 5.48368 6.43876 5.20224C6.15732 4.92081 5.99921 4.5391 5.99921 4.14108C5.99921 3.97051 5.93145 3.80692 5.81083 3.6863C5.69022 3.56569 5.52663 3.49792 5.35605 3.49792C5.18547 3.49792 5.02188 3.56569 4.90127 3.6863C4.78065 3.80692 4.71289 3.97051 4.71289 4.14108C4.71289 4.88025 5.00652 5.58914 5.52919 6.11181C6.05186 6.63448 6.76075 6.92811 7.49992 6.92811C8.23908 6.92811 8.94797 6.63448 9.47064 6.11181C9.99331 5.58914 10.2869 4.88025 10.2869 4.14108C10.2869 3.97051 10.2192 3.80692 10.0986 3.6863C9.97795 3.56569 9.81436 3.49792 9.64378 3.49792Z" fill="white"/>
</svg>
