<svg width="50" height="47" viewBox="0 0 50 47" fill="none" xmlns="http://www.w3.org/2000/svg">
<path fill-rule="evenodd" clip-rule="evenodd" d="M50 22.319C49.958 21.6716 49.916 21.0348 49.8779 20.4194C49.8664 20.2664 49.855 20.1134 49.8435 19.964C49.8206 19.8146 49.8015 19.6652 49.7786 19.5193C49.7328 19.2276 49.6909 18.943 49.6489 18.6691C49.4924 18.4486 49.5191 17.6161 49.2138 17.4276C49.1985 17.0967 49.1947 16.9794 49.042 16.677C49.2519 16.7624 48.9581 16.3212 49.1146 16.3497C48.9733 16.1042 49.0306 15.7556 48.8817 15.6702C48.9543 16.0331 49.1069 16.2359 48.9886 16.3817C48.9314 16.0366 48.7405 15.7058 48.813 15.439C48.7024 15.1829 48.3856 14.7453 48.4276 14.4963C48.2787 14.5176 48.336 14.1868 48.1909 14.0765C48.1299 14.0729 48.149 14.1868 48.1032 14.1121C47.9543 13.92 47.9734 13.6034 47.8322 13.454C47.8551 13.5215 47.878 13.5856 47.8169 13.5891C47.7253 13.4291 47.8016 13.4077 47.7101 13.2476C47.6032 13.269 47.7597 13.5038 47.7597 13.614C47.9009 13.6887 48.1642 14.3184 48.1222 14.4251C47.9963 14.2544 47.8971 14.2224 47.9161 13.9982C47.8169 13.9911 47.9009 14.1299 47.8398 14.1548C47.9123 14.3362 48.0116 14.3042 48.0841 14.5034C47.9887 14.4963 47.9085 14.3896 47.8169 14.3504C47.8856 14.5496 47.9963 14.4536 48.0688 14.635C48.0345 14.7062 47.9047 14.5069 47.9467 14.6777C47.9734 14.6955 47.9925 14.7168 48.0039 14.7417C47.9848 14.7453 47.9658 14.7489 47.9467 14.756C47.9085 14.7738 47.8665 14.7951 47.8284 14.8129C47.836 14.788 47.8513 14.7702 47.878 14.7595C47.7788 14.6101 47.7978 14.5781 47.7787 14.4216C47.7062 14.45 47.7635 14.6955 47.8055 14.8236C47.7215 14.8662 47.6375 14.9054 47.5498 14.9445C47.5421 14.9481 47.5269 14.9374 47.5116 14.9232C47.4963 14.8698 47.4772 14.82 47.4582 14.7666C47.4543 14.7062 47.4429 14.6457 47.3818 14.5994C47.3093 14.4394 47.2521 14.2828 47.3284 14.1619C47.1261 14.0694 46.8933 13.3401 46.92 13.1445C46.8437 13.1587 46.7559 13.0626 46.6796 12.9488C46.6796 12.9061 46.6796 12.867 46.6872 12.8243C46.6948 12.7674 46.6452 12.746 46.5803 12.7603C46.5345 12.6571 46.5155 12.5682 46.5422 12.5539C46.4468 12.4721 46.3552 12.3867 46.2598 12.2942C46.2292 12.2231 46.1987 12.1519 46.1643 12.0808C46.172 12.0808 46.1796 12.0844 46.1872 12.0879C46.0689 11.8496 45.9468 11.629 45.817 11.4156C45.8132 11.412 45.8132 11.4084 45.8094 11.4049C45.527 10.9175 45.1987 10.4444 44.8362 10.0068C44.7102 9.80761 44.5805 9.59772 44.4431 9.36649C44.4011 9.39851 44.3476 9.37716 44.2942 9.32736C44.2675 9.09968 44.0156 8.86845 43.8095 8.66212C43.7599 8.5056 43.6797 8.35619 43.5767 8.21033C43.5843 8.19966 43.592 8.18899 43.6072 8.17832C43.5347 8.08938 43.5042 8.07871 43.4813 8.08938C43.4507 8.05025 43.4164 8.01468 43.3859 7.9791C43.2485 7.82258 43.0958 7.66961 42.9546 7.51664C42.8057 7.36723 42.6645 7.21781 42.5538 7.06129C42.2104 6.55969 41.8669 6.04387 41.4776 5.55294C41.073 5.07981 40.6188 4.63513 40.0196 4.3541C39.9013 4.26516 39.8937 4.42169 39.7868 4.35054C39.4357 4.0446 38.9701 3.76712 38.5006 3.47186C38.0121 3.20505 37.5236 2.91335 37.058 2.66433C36.4092 2.28724 35.8443 1.80699 35.1153 1.55441C34.6879 1.41923 34.3024 1.32318 33.9398 1.29472C33.5773 1.26982 33.2414 1.29828 32.9246 1.39077C32.2911 1.14175 31.3942 1.41567 30.8255 1.00657C30.6843 1.02436 30.669 1.15954 30.4362 1.08839C30.2683 1.05637 30.2874 0.985229 30.2072 0.935425C30.1691 1.09907 30.2645 1.08128 30.1309 1.19867C30.6232 1.2378 30.837 1.31962 31.2835 1.27693C31.3942 1.32318 31.4209 1.38366 31.6003 1.42279C32.5926 1.43702 33.7757 1.5224 35.0237 1.91371C36.2221 2.30503 37.2183 3.11256 38.0961 3.34379C38.2564 3.46474 38.0846 3.55724 38.1839 3.67108C38.6648 3.79203 38.8594 4.20113 39.3365 4.47149C39.6647 4.67427 40.0731 4.70272 40.428 4.96241C40.7791 5.23633 41.0196 5.5067 41.2715 5.79129C41.5119 6.083 41.76 6.38893 42.1226 6.74112C42.1264 6.76246 42.1302 6.78025 42.134 6.80159C41.9585 6.66641 41.8363 6.53835 41.5577 6.33913C41.5959 6.2751 41.7028 6.43162 41.7486 6.39605C41.5463 6.20039 41.3669 6.07944 41.2142 5.95493C41.0616 5.83042 40.9356 5.6988 40.8249 5.49959C40.741 5.62054 40.5158 5.37863 40.4089 5.43555C40.6456 5.64544 40.9509 5.90868 40.9471 6.12924C40.7143 6.01185 40.7524 5.81619 40.615 5.80908C40.7601 6.06521 40.9318 6.20395 41.1341 6.33557C41.3364 6.4672 41.5386 6.61305 41.7676 6.85496C41.7371 6.88697 41.6989 6.88342 41.657 6.8763C41.7753 7.07196 42.0119 7.20358 42.1875 7.32098C42.2256 7.3779 42.2714 7.43125 42.3134 7.48462C42.2829 7.46683 42.2523 7.4526 42.2142 7.44549C42.2523 7.5202 42.302 7.59846 42.3325 7.67316C42.2981 7.65538 42.2676 7.6447 42.2485 7.64826C42.2905 7.68739 42.3287 7.72652 42.363 7.76566C42.3707 7.80479 42.3745 7.84392 42.363 7.87593C42.0577 7.71941 41.7753 7.6447 41.5005 7.58423C41.4585 7.52731 41.428 7.47039 41.4051 7.42059L41.3364 7.48462C41.3783 7.51663 41.4051 7.54509 41.428 7.57C41.386 7.56288 41.3478 7.55221 41.3058 7.5451C41.2867 7.52731 41.2677 7.50952 41.2524 7.48818C41.2867 7.45616 41.2219 7.31031 41.1722 7.40991C41.2257 7.45972 41.2371 7.49529 41.218 7.52375C41.1226 7.47039 41.012 7.43837 40.9356 7.36723C40.8517 7.28896 40.8211 7.16445 40.7524 7.07552C40.657 6.95456 40.3708 6.95457 40.3059 7.0933C40.283 7.13955 40.2601 7.17868 40.2334 7.22137C40.1456 7.17868 40.0578 7.12888 39.97 7.07552C40.0044 6.9261 39.9815 6.77314 39.909 6.62017C39.8975 6.59882 39.8212 6.59526 39.7754 6.59526C39.7563 6.59526 39.7258 6.61305 39.7181 6.63084C39.7143 6.63795 39.7105 6.64507 39.7067 6.65574C39.5731 6.60238 39.4357 6.53123 39.4014 6.38182C39.3632 6.42095 39.3441 6.46008 39.3594 6.50989C39.4624 6.57392 39.5616 6.62728 39.68 6.73756C39.68 6.74824 39.68 6.7589 39.6838 6.76246C39.741 6.81582 39.7677 6.8763 39.7906 6.93678C39.5197 6.69487 39.2678 6.4921 39.0159 6.33913C38.9586 6.30356 38.9014 6.2751 38.848 6.24308C38.8556 6.23597 38.8632 6.22885 38.8709 6.22174C38.8556 6.20395 38.8403 6.18616 38.8251 6.16838C38.8098 6.1826 38.7945 6.19328 38.7831 6.20751C38.6037 6.11146 38.4319 6.03675 38.264 5.97272C38.203 5.9158 38.1457 5.85888 38.0999 5.80908C38.0388 5.76639 37.9701 5.73081 37.9014 5.69168C36.8939 4.83435 35.5733 4.00547 34.1268 3.39715C32.5468 2.71769 30.8484 2.30503 29.4286 2.16273C29.1042 2.02043 28.7989 1.91371 28.463 1.84968C28.1272 1.78209 27.7684 1.73228 27.341 1.73228C26.9021 1.36587 26.0395 1.31607 25.1999 1.3552C24.99 1.36587 24.78 1.37654 24.5778 1.38721C24.3755 1.40144 24.177 1.41923 23.9938 1.42634C23.6236 1.43702 23.303 1.42635 23.0664 1.35164C22.6657 1.81766 21.3146 1.70383 20.8413 1.5473C20.7841 1.7145 20.5856 1.7892 20.3528 1.81766C20.12 1.84968 19.849 1.84612 19.6353 1.83189C19.62 1.76786 19.9482 1.62912 19.6048 1.70027C19.4406 1.71805 19.4559 1.7892 19.3796 1.83545C19.2117 1.7643 19.0017 1.73228 18.8987 1.61133C18.5895 1.65046 18.5705 1.76786 18.2613 1.80699C18.3186 1.70027 18.3491 1.58643 18.5285 1.51172C18.9559 1.35164 19.0514 1.47615 19.2994 1.48326C19.2651 1.37298 19.1086 1.37299 19.3414 1.29117C19.5132 1.5473 19.8605 1.12397 20.1238 1.33385C19.9711 1.36943 19.8528 1.41212 19.8109 1.48326C20.1238 1.3801 20.5055 1.28049 20.7803 1.19511C20.6925 1.20934 20.5627 1.20223 20.6887 1.1631C19.1735 1.10974 17.7575 1.36587 16.4256 1.79987C15.0897 2.23743 13.8341 2.84931 12.5708 3.57858C12.3723 3.55723 12.0861 3.68175 11.8075 3.78491C11.1396 4.31141 10.6282 4.63513 10.7427 5.15095C11.5594 4.59956 12.1701 4.09085 13.6242 3.40782C13.9791 3.36514 14.2921 3.41494 14.4753 3.62127C13.4143 4.27584 12.067 4.64936 11.1549 5.42843C11.0251 5.54227 11.0098 5.63121 10.8801 5.72726C10.09 6.31423 9.62822 6.53479 9.07482 6.92255C7.99854 7.68028 7.09401 8.73327 6.22002 9.67598C6.02919 9.88587 5.66661 9.97836 5.64371 10.327C5.90706 10.0851 6.17803 9.82895 6.40321 9.57282C6.63602 9.32024 6.84593 9.0819 6.97952 8.86845C7.27721 8.64434 7.67795 8.3384 8.05961 7.99688C8.46416 7.67672 8.85727 7.32098 9.20458 7.05773C9.40304 6.95456 9.59006 6.84784 9.76943 6.74112C9.95263 6.63795 10.1244 6.53479 10.2923 6.42807C10.6243 6.20751 10.9488 5.99406 11.2808 5.76995C11.9449 5.32171 12.6662 4.86281 13.6547 4.46438C13.8723 4.62802 14.0745 4.47861 14.4028 4.3541C14.5096 4.60312 14.7959 4.596 15.1584 4.47149C15.3264 4.32564 14.9523 4.35765 15.1279 4.2367C15.3684 4.22247 15.5974 4.22247 15.7118 4.38967C15.521 4.46437 15.3187 4.57465 15.1966 4.55687C15.3569 4.72407 15.7729 4.52129 15.8836 4.7632C15.5516 4.9304 15.2424 5.1225 14.9447 5.31104C14.6547 5.51382 14.3722 5.71303 14.0974 5.9158C13.5478 6.32846 13.0097 6.72333 12.38 7.05773C12.1472 7.06129 11.9525 6.96879 11.7006 7.01504C11.6968 7.25339 12.2006 7.0435 12.3762 7.17157C12.2464 7.34944 12.0441 7.52375 11.8609 7.70518C11.8075 7.7621 11.7541 7.81902 11.7006 7.87238C11.6892 7.87594 11.6777 7.87949 11.6625 7.88305C11.4258 7.93641 11.151 8.01112 11.0442 8.24235C11.0251 8.28148 11.0022 8.31705 10.9831 8.35263C10.8037 8.48069 10.6396 8.60876 10.4908 8.73683C10.4831 8.74038 10.4755 8.74394 10.4641 8.7475C10.4488 8.76884 10.4297 8.78308 10.4144 8.80086C10.3877 8.82577 10.3534 8.85067 10.3267 8.87913C10.1358 9.01787 9.89156 9.02498 9.64349 9.02142C9.55571 9.02142 9.50991 9.06767 9.48701 9.14237C9.47174 9.18506 9.44884 9.23131 9.41831 9.26332C9.34198 9.34159 9.27328 9.48033 9.12825 9.33447C8.99467 9.36293 8.92597 9.45898 8.88017 9.56215C8.79621 9.75425 8.68171 9.88943 8.43363 9.8752C8.38783 9.87164 8.32677 9.88943 8.29624 9.91789C8.12449 10.0886 7.87259 10.1954 7.79245 10.4373C7.74283 10.5938 7.60543 10.5618 7.49475 10.5796C7.47567 10.6187 7.4604 10.6721 7.43369 10.6827C7.05585 10.7895 6.77342 11.0136 6.50626 11.2697C6.36505 11.4049 6.23528 11.5365 6.033 11.6112C5.76203 11.7144 5.44143 11.8069 5.49487 12.1946C5.5025 12.2444 5.4109 12.3085 5.35747 12.3618C5.26587 12.4472 5.17427 12.5255 5.07504 12.6037C5.02543 12.6429 4.97963 12.7354 4.89948 12.6464C4.84605 12.5859 4.70865 12.5504 4.81552 12.4294C4.84605 12.3938 4.86895 12.3476 4.86895 12.3014C4.86895 12.2587 4.83842 12.216 4.82315 12.1768C4.80025 12.1911 4.78117 12.2017 4.75827 12.216C4.59034 12.3334 4.48729 12.5041 4.49874 12.682C4.50637 12.7745 4.53309 12.8421 4.45676 12.9132C4.33081 13.0271 4.21631 13.1587 4.01403 13.1551C3.76977 13.1516 3.94915 13.2796 3.93007 13.3579C3.8919 13.5073 3.8003 13.703 3.66672 13.767C3.52933 13.8346 3.43391 13.9235 3.3614 14.0231C3.39193 13.888 3.42628 13.7528 3.48353 13.6212C3.79649 12.8172 4.55217 11.9527 4.86131 11.1559C5.23916 11.0385 4.93765 10.9175 5.35365 10.6258C5.30404 10.5226 5.24297 10.327 5.12084 10.3839C5.06741 10.3697 5.00634 10.4159 4.94528 10.4622C4.76208 10.9104 4.46821 11.1701 4.34989 11.5934C3.44536 12.4543 2.93012 13.4789 2.5561 14.5852C2.52175 14.5888 2.49122 14.5923 2.45305 14.5888C2.45687 14.635 2.48359 14.6706 2.51793 14.6919C2.5103 14.7168 2.50267 14.7382 2.49503 14.7631C2.46069 14.8698 2.43015 14.9765 2.39962 15.0832C2.33474 15.1224 2.26986 15.158 2.19734 15.19C2.06758 15.2433 1.9798 15.3501 1.97598 15.5173C1.96835 15.9939 1.9569 15.9975 1.49509 16.2465C1.45693 16.2679 1.41494 16.2785 1.37296 16.2892C1.36151 16.3746 1.3119 16.4244 1.22411 16.4351C1.23556 16.5489 1.42639 16.6556 1.22411 16.7801C1.12107 16.8442 1.02947 16.9367 0.964587 17.0363C0.937871 17.079 0.911154 17.1181 0.880622 17.1572C0.880622 17.1394 0.876805 17.1252 0.872988 17.111C0.865355 17.1394 0.853905 17.175 0.842456 17.207C0.800473 17.2533 0.750858 17.296 0.678343 17.3315C0.533313 17.4027 0.67071 17.5343 0.727959 17.6304C0.491331 17.8972 0.731775 18.292 0.453165 18.5482C0.449349 18.7367 0.483697 18.9359 0.434082 19.1138C0.376833 19.3166 0.269969 19.498 0.304318 19.7221C0.331034 19.8858 0.23562 19.9854 0.0676906 20.0316C0.037158 20.0387 -0.00100833 20.1277 0.014258 20.149C0.121122 20.302 0.0524244 20.4443 0.010442 20.5901C0.205088 20.8142 0.159288 21.0846 0.147838 21.3407C0.136389 21.5933 0.220353 21.8637 0.014258 22.0914C-0.0239078 22.134 0.018075 22.2337 0.0982232 22.2621C0.193638 22.2977 0.292869 22.319 0.285235 22.4435C0.281419 22.5396 0.285236 22.6321 0.292869 22.7281C0.319585 23.1194 0.23562 23.525 0.445532 23.9021C0.472248 23.9483 0.430265 24.0373 0.407366 24.1013C0.384466 24.1582 0.300502 24.1973 0.376833 24.2756C0.495147 24.393 0.464615 24.5424 0.453165 24.6812C0.430266 24.98 0.434082 25.1152 0.506597 25.2361C0.613461 25.4175 0.697427 25.6167 0.884439 25.7555C0.956954 25.8088 1.04473 25.9013 1.04855 25.9796C1.06 26.1966 1.1058 26.3958 1.21648 26.5808C1.17068 26.9508 1.36151 27.2567 1.53326 27.5662C1.55616 27.6053 1.59432 27.6765 1.60959 27.6729C1.90346 27.6018 1.94926 27.8864 2.12864 27.9753C2.30802 28.0642 2.49504 28.1461 2.68205 28.2279C2.7164 28.3061 2.75075 28.388 2.7851 28.4698C2.77365 28.4947 2.78128 28.516 2.81181 28.5303C2.84234 28.6085 2.87288 28.6939 2.90341 28.7757C2.79654 28.8789 2.72403 28.9749 2.83853 29.1564C2.96066 29.3485 3.00264 29.5868 3.06371 29.8074C3.08279 29.8821 3.10569 29.9461 3.1782 29.9675C3.28507 29.9995 3.34995 30.0208 3.27743 30.1489C3.224 30.2485 3.25072 30.4015 3.1782 30.4797C2.99882 30.6683 3.23545 30.7714 3.25453 30.9173C3.26217 30.992 3.39193 30.9849 3.44536 30.9458C3.58658 30.8426 3.70107 30.7145 3.83847 30.6114C3.97205 30.5117 3.89572 30.4406 3.85374 30.3268C3.76977 30.1026 3.81939 29.8643 3.85374 29.6295C3.85755 29.6117 3.88427 29.5975 3.89954 29.5797C3.91862 29.5975 3.94915 29.6153 3.94915 29.6331C3.9606 29.8216 4.15906 29.8928 4.2354 30.0351C4.27356 30.1026 4.08655 30.2129 4.2354 30.2521C4.46439 30.3125 4.55599 30.4584 4.6285 30.6434C4.71628 30.8604 4.80025 31.0774 4.9033 31.2873C5.01398 31.5185 5.14374 31.7462 5.26587 31.9738C5.2964 32.0343 5.35365 32.1055 5.34602 32.1624C5.31167 32.4043 5.4338 32.5822 5.617 32.7138C5.81164 32.8525 5.81164 33.0268 5.80783 33.2225C5.80401 33.3399 5.78493 33.4644 5.89179 33.5533C6.1017 33.7276 6.17422 33.9838 6.32306 34.1937C6.38795 34.2862 6.40321 34.151 6.42993 34.1047C6.44901 34.0692 6.48336 34.0407 6.51008 34.0087C6.52534 34.0265 6.55587 34.0478 6.55587 34.0656C6.54824 34.3431 6.63221 34.617 6.47191 34.8909C6.36123 35.0795 6.42993 35.2893 6.55969 35.4886C6.77724 35.8194 6.80395 35.8692 7.14363 35.9759C7.42987 36.0649 7.47949 36.1147 7.48712 36.3601C7.49475 36.5736 7.46804 36.7906 7.6894 36.94C7.72756 36.9649 7.77718 37.0147 7.77718 37.0538C7.77336 37.3847 8.04052 37.5519 8.25425 37.7475C8.41455 37.8934 8.54431 38.0855 8.78857 38.1353C8.89925 38.3523 9.09772 38.5017 9.25038 38.6867C9.41831 38.893 9.75799 38.9072 9.83813 39.1918C9.84958 39.2381 9.91065 39.2239 9.93736 39.1634C9.95645 39.1207 9.95263 39.0709 9.97553 39.0282C9.98316 39.014 9.99461 38.9997 10.0022 38.9855C10.1206 39.0744 10.2541 39.1634 10.3839 39.2488C10.2923 39.1634 10.1854 39.0104 10.0748 38.8788C10.0786 38.8681 10.0862 38.861 10.0862 38.8503C10.1091 38.7365 10.0175 38.7009 9.91065 38.6725C9.84577 38.6547 9.7618 38.5977 9.7389 38.5444C9.72364 38.5052 9.70074 38.4732 9.68165 38.4377C9.6931 38.4377 9.70837 38.4412 9.72364 38.4448C9.69692 38.4128 9.67402 38.3985 9.65112 38.3843C9.52136 38.1958 9.32671 38.057 9.19313 37.872C9.09772 37.7369 8.9336 37.6017 8.9336 37.4629C8.92979 37.2922 9.06337 37.1214 9.13588 36.9507C9.1626 36.8866 9.1855 36.8226 9.21603 36.7586C9.22366 36.7372 9.24656 36.7194 9.26565 36.7052C9.34961 36.6518 9.28855 36.6803 9.30763 36.7586C9.34961 36.9364 9.45266 36.9791 9.6244 36.9756C9.78852 36.972 9.74272 37.0467 9.70074 37.1463C9.63585 37.3064 9.82287 37.2281 9.88012 37.2779C9.93736 37.3242 9.94881 37.3704 9.8763 37.3775C9.63204 37.3918 9.70074 37.5127 9.75799 37.6372C9.63204 37.7475 9.62822 37.8863 9.66639 38.0286C9.6702 38.0499 9.68929 38.0784 9.70837 38.0855C9.72364 38.0926 9.75417 38.0712 9.76943 38.057C9.82287 38.0072 9.90302 37.961 9.91828 37.9005C9.9908 37.6301 10.1664 37.527 10.4602 37.527C10.5709 37.5803 10.6816 37.6088 10.7694 37.5839C10.7388 37.6479 10.7236 37.7084 10.7465 37.776C10.7274 37.7653 10.7159 37.7582 10.7121 37.7546C10.7274 37.7724 10.7465 37.7867 10.7617 37.8044C10.777 37.8365 10.7999 37.8649 10.8419 37.8969C10.8839 37.929 10.8686 38.0001 10.8419 38.0641C10.8037 38.0392 10.7656 38.0108 10.7198 37.9859C10.777 37.8685 10.5213 37.6195 10.506 37.7618C10.7656 37.7902 10.4984 37.8934 10.5518 37.9432C10.6396 37.9859 10.7121 38.0748 10.7923 38.1602C10.7198 38.306 10.6587 38.4519 10.6053 38.6013C10.5213 38.8396 10.5251 39.0673 10.777 39.231C11.0136 39.3839 11.0747 39.5974 11.0289 39.85C11.0175 39.9175 11.0327 39.9923 11.0213 40.0634C11.0175 40.0954 11.0213 40.1239 11.0213 40.1523C10.9831 40.1452 10.9411 40.1381 10.8953 40.1239C10.9411 40.1666 10.9869 40.1986 11.0327 40.227C11.0365 40.2484 11.0442 40.2697 11.0518 40.2875C10.7503 40.1488 10.4412 39.9175 10.1282 39.6685C9.88393 39.4693 9.63585 39.263 9.40304 39.0709C9.17787 38.8717 8.97177 38.6796 8.76949 38.5444C8.84582 38.6084 8.53668 38.4626 8.45271 38.3203C8.45271 38.5657 8.89162 39.0033 8.96032 39.3412C9.14352 39.4978 9.2542 39.6294 9.2771 39.7575C9.35724 39.8144 9.42594 39.8535 9.48319 39.8642C9.39159 40.1132 10.5289 40.8033 10.3038 40.8709C10.506 40.9492 10.6892 40.9741 10.964 41.1306C11.0251 41.0808 10.9106 41.0239 10.9984 40.9741C11.1396 41.0595 11.2579 41.1093 11.3304 41.0915C11.0327 40.9065 10.9106 41.0132 10.6472 40.878C10.7465 40.814 10.632 40.6859 10.5099 40.6753C10.3725 40.7144 10.6625 40.7998 10.6014 40.846C10.5251 40.7962 10.5213 40.8852 10.4221 40.7998C10.6167 40.7286 10.0175 40.5436 9.97171 40.348C10.0137 40.3053 10.0633 40.2875 10.1396 40.3124C10.4564 40.5792 10.3572 40.3836 10.5404 40.4334C10.6969 40.5187 10.6167 40.5863 10.7236 40.6682C10.8343 40.565 11.0976 40.7144 11.2846 40.8531C11.548 40.9385 11.8228 40.9563 12.0785 40.9848C12.0937 40.9954 12.1052 41.0061 12.1204 41.0168C12.2655 41.1377 12.4372 41.2338 12.6013 41.337C12.6395 41.3619 12.6929 41.3405 12.6968 41.28C12.7044 41.1413 12.7693 40.9812 12.6624 40.8709C12.5174 40.7215 12.4067 40.5116 12.1243 40.533C12.0632 40.5365 11.9716 40.4938 11.9334 40.444C11.88 40.3729 11.8304 40.2982 11.777 40.227C11.7884 40.2199 11.8075 40.2128 11.8304 40.2093C11.7884 40.1915 11.7579 40.1737 11.7273 40.1559C11.6472 40.042 11.5709 39.9247 11.4907 39.8073C11.567 39.6152 11.6357 39.4195 11.7235 39.231C11.7579 39.1634 11.777 39.1029 11.7541 39.0353C11.7464 39.0175 11.7121 38.9891 11.7121 38.9891C11.4335 39.1989 11.3877 38.8966 11.2579 38.8041C11.1587 38.7365 11.1549 38.6226 11.1625 38.5159C11.3266 38.4626 11.3915 38.7578 11.5785 38.6867C11.5938 38.7009 11.6128 38.7187 11.6319 38.7329C11.735 38.8717 11.9144 39.0424 12.1166 39.174C12.3265 39.3163 12.525 39.4409 12.6204 39.5191C12.6052 39.4871 12.7158 39.4444 12.754 39.4586C12.857 39.608 13.4028 39.6756 13.1471 39.7112C13.3112 39.8179 13.3876 39.7681 13.483 39.7539C13.0784 39.6081 12.7616 39.3626 12.4678 39.3306C12.4181 39.1598 12.1624 39.0531 11.9716 38.9393C11.8991 38.893 11.8342 38.8539 11.7846 38.8112C11.8151 38.8076 11.8533 38.7898 11.8838 38.7792C11.8953 38.7756 11.9029 38.74 11.8953 38.7294C11.8724 38.6867 11.8304 38.6547 11.8151 38.612C11.7922 38.5479 11.7693 38.4697 11.8533 38.427C11.9182 38.395 11.9907 38.3807 12.0632 38.4305C12.1204 38.4697 12.1815 38.4981 12.2426 38.5302C12.2502 38.6013 12.2388 38.6831 12.2769 38.7329C12.3113 38.7792 12.3991 38.8005 12.4678 38.8112C12.5708 38.8254 12.6739 38.8147 12.7731 38.8432C12.7235 38.861 12.67 38.8539 12.7922 38.9179C12.838 38.9179 12.8914 38.925 12.9448 38.9393C12.9639 38.9499 12.983 38.9535 13.0021 38.957C13.2883 39.0495 13.628 39.2879 13.8455 39.3235C13.712 39.2416 13.5822 39.1669 13.4562 39.0887C13.5326 39.0922 13.6089 39.0922 13.6891 39.0887C13.7081 39.0887 13.731 39.0638 13.7387 39.046C13.7425 39.0389 13.7272 39.0104 13.7158 39.0033C13.6089 38.9357 13.4982 38.9393 13.3914 39.0033C13.3799 39.0104 13.3761 39.0246 13.3685 39.0389C13.296 38.9962 13.2273 38.9499 13.1586 38.9072C13.2273 38.861 13.2921 38.8076 13.3761 38.8219C13.4639 38.8361 13.5555 38.8325 13.6471 38.8254C13.7272 38.9001 13.815 38.9713 13.9142 39.014C13.941 38.9357 14.0936 39.0851 14.1051 38.9784C14.1165 38.9535 14.1089 38.9286 14.0936 38.9037C14.2463 38.9784 14.3951 38.9677 14.5516 38.9642C14.7157 38.9606 14.8188 38.9855 14.8798 39.1669C14.9104 39.2594 14.9829 39.3306 15.0821 39.3697C15.0668 39.4231 15.1241 39.4871 15.1966 39.5511C15.0325 39.544 14.9714 39.6899 14.7692 39.6294C14.8531 39.6721 14.9142 39.7148 14.9256 39.7646C14.8608 39.8108 14.7195 39.7468 14.6737 39.8179C14.8608 39.8606 15.0668 39.978 15.2539 40.1381C15.3187 39.9887 15.5897 40.1666 15.666 40.2164C15.5745 40.2697 15.4332 40.227 15.3149 40.131C15.3455 40.2946 15.1126 40.0883 15.1088 40.2093C15.2844 40.3267 15.9332 40.2235 16.0782 40.5436C15.6622 40.348 15.5248 40.4476 15.2462 40.4013C15.105 40.533 15.1508 40.6397 15.2653 40.7357L15.2997 40.6575C15.4065 40.6895 15.418 40.7322 15.479 40.7678C15.4371 40.7784 15.3989 40.7927 15.4561 40.8247C15.4142 40.8887 15.3913 40.7607 15.2768 40.7429C15.4218 40.8603 15.6622 40.9634 15.7996 41.0879C16.2424 41.1947 16.8263 41.5717 17.1965 41.5824C17.0515 41.497 16.6889 41.433 16.6965 41.2587C16.853 41.152 16.9675 41.4259 17.0667 41.3156C16.8606 41.2053 16.7423 41.2409 16.7003 41.0986C16.7652 41.12 16.7652 41.063 16.8187 41.0737C17.0057 41.1733 17.2041 41.3298 17.1469 41.4045C17.1621 41.3085 17.2652 41.5255 17.3072 41.4259C17.2423 41.3761 17.2652 41.3085 17.2537 41.248C17.0095 41.1769 16.8645 41.0808 16.8606 40.9599C17.1812 40.935 17.395 41.0844 17.6354 41.1057C17.6812 41.1911 17.7385 41.2694 17.811 41.337C17.8758 41.3974 17.9445 41.3832 18.0171 41.3583C18.0781 41.3369 18.1125 41.248 18.2041 41.3014C18.33 41.3725 18.4827 41.4188 18.5857 41.5113C18.8185 41.7318 19.0895 41.8812 19.3987 41.9915C19.4025 41.9915 19.4025 41.9951 19.4025 41.9986C19.3948 42.0093 19.3834 42.02 19.3796 42.0342C19.0895 41.9915 18.8834 42.0591 18.5934 41.9168C18.6048 41.9417 18.6277 41.9524 18.6468 41.9702C18.4636 41.9346 18.2766 41.9026 18.0858 41.8706C17.956 42.0555 18.3033 41.867 18.288 42.02C18.1659 42.0484 17.7652 41.9666 17.7575 41.8385C17.8491 41.8777 17.9445 41.9168 18.0323 41.9417C18.0056 41.8741 17.8835 41.8314 17.7766 41.7887V41.7852C17.7728 41.7852 17.7652 41.7816 17.7614 41.7816C17.6965 41.7532 17.6354 41.7247 17.6087 41.682C17.5705 41.6998 17.3148 41.6642 17.4293 41.7212C17.4331 41.7212 17.4446 41.7247 17.4484 41.7283C17.0667 41.65 16.7118 41.529 16.3721 41.4366C15.9408 41.3014 15.5287 41.1947 15.1012 41.1947C15.0172 41.0275 14.8493 40.9634 14.6737 40.9492C14.2196 40.8247 13.8684 40.5686 13.6318 40.3516C13.4868 40.5116 13.2731 40.0812 13.0593 40.0741C13.0631 40.0278 13.0288 39.9994 13.1051 39.9958C12.651 39.9674 12.6204 39.5049 12.1433 39.3555C12.3265 39.4835 11.88 39.3982 12.2426 39.5867C12.3418 39.5618 12.1891 39.4231 12.3113 39.4835C12.1968 39.633 12.5975 39.8144 12.6548 40.0278C13.0021 40.0243 13.1776 40.3124 13.544 40.5116C13.5517 40.5792 13.5517 40.7855 13.7158 40.7571C13.5097 40.6824 13.8036 40.6788 13.8379 40.6433C14.0364 40.7286 14.1967 40.8531 14.3608 40.9634C14.2463 40.9848 14.1509 41.0168 14.0974 41.0488C14.1432 41.0666 14.1852 41.0808 14.231 41.0986C14.2272 41.1306 14.2348 41.1484 14.17 41.1875C14.3837 41.3227 14.4371 41.2445 14.5592 41.2587C14.4028 41.4117 15.1012 41.5789 15.2348 41.7496C15.25 41.6856 15.3111 41.682 15.4256 41.7212C15.3874 41.7532 15.3416 41.7461 15.3913 41.8065C16.395 42.1303 17.3224 42.3793 18.2422 42.6354C18.5819 42.6141 19.5055 42.7315 19.3987 43.0232C20.5169 43.354 21.7153 43.4216 22.971 43.5212C23.3946 43.3825 23.9137 43.4536 24.2992 43.4856C24.2419 43.4785 24.4137 43.4109 24.5205 43.4465C24.9174 43.5674 24.2495 43.6884 23.9175 43.6742C24.2076 43.6706 23.9251 43.8734 23.8679 43.9445C23.2343 44.0015 22.7191 43.9766 22.1619 44.0299C22.013 44.0121 21.9978 43.9339 21.826 43.9232C21.5779 44.0299 21.3299 43.8093 21.0398 43.8022C20.8719 43.7951 20.7345 43.9125 20.5704 43.8912C20.3833 43.8698 20.2345 43.724 20.078 43.7026C19.9826 43.6884 19.8109 43.7204 19.7307 43.7133C19.7383 43.7133 19.7803 43.6599 19.7956 43.6635C19.6277 43.6386 19.5284 43.7097 19.3834 43.6955C19.3567 43.692 19.3567 43.5995 19.3452 43.5959C19.1544 43.5034 18.8758 43.603 18.6544 43.5639C18.5132 43.4429 18.872 43.4714 18.6315 43.4038C18.5934 43.4999 18.3606 43.4287 18.2613 43.475C18.143 43.2757 17.6316 43.3433 17.7423 43.1975C17.5476 43.1761 17.2766 43.1583 17.0171 43.1014C16.7614 43.0445 16.5095 42.9805 16.3416 42.92C16.4027 42.9449 16.3836 42.984 16.3683 43.0232C15.9599 42.888 15.8263 42.8453 15.5859 42.8275C15.5974 42.799 15.6432 42.8097 15.6622 42.7884C15.3531 42.6888 15.063 42.6141 14.815 42.5109C14.5669 42.4077 14.3493 42.3081 14.1738 42.2121C14.1051 42.2263 14.0478 42.2583 13.9639 42.2548C13.8646 42.1267 13.8188 42.1409 13.6891 42.1658C13.6089 42.0698 13.7081 41.9773 13.5326 41.9631C13.6738 42.1196 13.2807 41.9631 13.1624 41.931C13.1891 41.8777 13.0364 41.8314 13.1128 41.7745C13.1318 41.7069 13.2807 41.8136 13.3112 41.7638C12.9677 41.618 12.9257 41.6998 12.8303 41.8172C12.9334 41.9168 13.1433 42.0129 13.2616 42.1125C13.4372 42.0022 13.9562 42.3437 14.0516 42.4611C13.9829 42.4326 13.9829 42.4895 13.9219 42.4682C13.9295 42.4326 13.9677 42.3935 13.9066 42.3615C13.5173 42.3971 13.2311 42.1552 12.8265 41.9488C12.8914 42.1125 12.6815 41.9844 12.6204 42.0876C13.0402 42.2761 13.4677 42.4575 13.8455 42.6319C13.7043 42.5038 14.0402 42.6176 14.1089 42.6141C14.1929 42.6994 14.46 42.9093 14.5516 42.9058C14.4905 42.8738 14.5134 42.8382 14.5325 42.7991C14.6966 43.0303 15.063 43.0836 15.3645 43.2331C15.021 43.0979 15.1546 43.2224 14.8875 43.1655C15.1165 43.2864 15.2386 43.3718 15.4561 43.3255L15.4256 43.4109C15.7042 43.4536 16.0324 43.5852 16.3797 43.724C16.5553 43.7916 16.7309 43.8663 16.9103 43.9232C17.0935 43.973 17.2766 44.0086 17.456 44.0264C17.456 44.0619 17.4255 44.1082 17.4904 44.1295C18.1201 44.1615 18.9636 44.5706 19.2918 44.4995C19.2956 44.6204 18.9941 44.6062 18.8682 44.5066C18.8643 44.7201 19.2346 44.6382 19.3872 44.6347C19.3796 44.6347 19.3872 44.6951 19.3758 44.6951C19.6162 44.6987 19.7422 44.5778 19.9941 44.5991C20.3146 44.624 20.3833 44.7948 20.807 44.7983C20.7001 44.6418 21.2421 44.8446 21.4062 44.7841C21.0894 44.7378 21.2726 44.7236 21.5283 44.7485C21.784 44.7663 22.1199 44.7912 22.1123 44.8944C21.9176 44.8766 21.8833 44.9513 21.7497 44.9655C22.0779 44.9691 21.9214 45.0046 21.9787 45.1292C22.2458 45.1078 22.2725 45.1932 22.4557 45.211C22.4328 45.1149 22.1924 45.1149 22.1046 45.0438C22.1848 45.0473 22.2344 45.0367 22.284 45.0224C22.4214 45.0651 22.5054 45.2216 22.6389 45.0971C22.6313 45.1505 22.6504 45.1932 22.6962 45.2216C22.2115 45.2359 21.8794 45.2501 21.555 45.2394C21.2344 45.2074 20.9215 45.1505 20.4788 45.0331C20.204 45.0438 19.9292 44.9797 19.6544 44.9228C19.3758 44.8659 19.0972 44.8232 18.8033 44.8339C18.8071 44.777 18.6124 44.7699 18.6468 44.7058C17.8949 44.6204 17.1927 44.1544 16.5439 44.1936C16.7042 44.254 16.9446 44.2825 16.9293 44.3679C16.7461 44.3287 15.9103 44.1509 16.1622 44.0086C16.021 43.9801 15.8874 43.9659 15.6966 43.8876C15.5668 43.9801 15.9905 43.9908 15.9523 44.069C15.6889 43.9979 15.0897 43.8592 14.96 43.6422C14.4371 43.4821 14.002 43.2793 13.6089 43.105C13.2196 42.9236 12.8799 42.7386 12.5975 42.518C12.4907 42.6425 12.5212 42.4077 12.4105 42.365C12.2578 42.3295 12.3876 42.5216 12.2846 42.4718C12.2311 42.4433 12.212 42.4611 12.1662 42.4433C11.9525 42.3579 12.0174 42.2761 11.8991 42.1943C11.7922 42.2334 11.5518 42.0698 11.3495 41.9631C11.4296 41.7425 10.9831 41.6607 10.7808 41.5362C10.361 41.2978 9.93355 40.9385 9.50609 40.6219C9.09008 40.2946 8.67408 40.0065 8.38402 39.7681C8.78857 40.2021 9.01757 40.2377 9.33053 40.6361C9.65494 40.7856 9.97171 41.0168 10.2923 41.2622C10.6205 41.497 10.9678 41.7247 11.3113 41.9061C11.2617 41.9666 11.3419 42.0306 11.3342 42.0947C11.2503 42.0982 11.1129 42.0271 11.0251 42.0271C11.193 42.1978 11.8457 42.3401 12.0937 42.6852C12.1701 42.6141 12.3151 42.7528 12.4334 42.8168C12.7082 42.7137 13.5211 43.0908 13.8188 43.2615C13.7807 43.3078 13.3189 43.0481 13.4639 43.1726C13.628 43.2437 13.7997 43.3149 13.7578 43.4003C13.6547 43.3754 13.4486 43.2259 13.4143 43.2829C13.5707 43.4002 13.9562 43.507 13.7807 43.6422C14.0058 43.7631 13.7539 43.5034 13.9982 43.603C14.002 43.6315 14.0326 43.6564 14.0974 43.6777C14.1127 43.8378 13.9371 43.7702 13.8455 43.8022C14.0631 43.9837 14.128 43.8769 14.1623 43.8378C14.3035 43.9872 13.9715 43.8805 14.0898 44.005C14.3073 44.158 14.5745 44.2505 14.7043 44.2932C14.6394 44.2647 14.6241 44.2291 14.6089 44.1971C14.7043 44.2505 14.8837 44.1971 14.8989 44.2967C14.8302 44.2789 14.7348 44.2362 14.7119 44.2647C15.0096 44.4532 15.5668 44.5635 15.7157 44.7627C15.8721 44.7734 15.6393 44.6418 15.8149 44.6667C16.166 44.7343 16.0859 44.8659 16.3072 44.9548C16.353 44.9228 16.2843 44.7841 16.4103 44.8303C16.6126 44.9157 17.0019 44.9299 16.9217 45.0616C16.853 45.0687 16.4561 44.9762 16.6011 45.0473C16.9561 45.0758 17.1774 45.1967 17.3568 45.1042C17.5896 45.1967 17.2728 45.2501 17.4942 45.3213C17.582 45.3248 17.5324 45.211 17.643 45.2323C17.7079 45.3035 18.3224 45.5774 18.0514 45.3888C18.3033 45.4742 18.3529 45.4813 18.7155 45.5667C18.7346 45.524 18.7155 45.4529 18.7995 45.46C19.2994 45.613 19.7841 45.6592 20.2498 45.7197C20.7154 45.7695 21.1657 45.8264 21.6199 45.9047C21.6466 45.8549 21.5359 45.8228 21.6275 45.8157C21.971 45.8798 22.2535 45.9367 22.4901 45.8264C22.4901 45.8691 22.4596 45.8904 22.4252 45.9153C22.6809 45.8727 23.0015 45.9509 23.2305 46.0078C23.0588 46.1217 22.742 46.0078 22.6657 46.1999C23.1007 46.1999 23.2916 45.958 23.7877 46.0256C23.8717 45.958 23.6274 45.9082 23.7839 45.9047C23.9709 45.9474 24.0244 45.9402 24.1541 45.8762C24.1541 45.9794 24.3373 45.9794 24.4671 46.0149C24.9518 45.8798 25.4441 46.0612 25.8792 45.8513C26.1273 45.8549 26.4021 45.8584 26.6883 45.8371C26.9746 45.8051 27.2684 45.7659 27.5547 45.7161C28.131 45.6201 28.673 45.4991 29.047 45.3782C29.1195 45.4458 29.3905 45.3355 29.3867 45.46C29.7034 45.2714 29.9439 45.4066 30.1538 45.2145C30.0775 45.2288 30.0088 45.2394 30.0164 45.1861C30.1538 45.1256 30.1691 45.1292 30.4248 45.0545C30.4438 45.0971 30.4477 45.1576 30.5736 45.1114C30.7072 44.8766 31.2415 44.9406 31.5392 44.8944C31.5354 44.8339 31.4362 44.8588 31.3865 44.841C31.6155 44.7699 32.0239 44.5955 32.1346 44.7272C31.9972 44.809 31.8827 44.6738 31.8331 44.7983C31.917 44.777 31.9247 44.8374 31.9819 44.8446C32.5582 44.4675 33.4475 44.2113 33.8673 44.0833C34.0162 44.0299 34.0391 43.9054 34.1078 43.8769C34.2833 43.8058 34.4856 43.8663 34.7642 43.6813C34.7146 43.7133 34.8444 43.6493 34.9856 43.5781C35.0428 43.5532 35.5886 43.2295 35.7947 43.2686C35.8596 43.3255 35.3825 43.5105 35.5657 43.4785C35.7603 43.3753 35.81 43.3113 36.0122 43.2686C35.9474 43.2117 36.0046 43.1477 36.0924 43.105C36.1763 43.0552 36.2947 43.0161 36.3595 43.0196C36.2183 43.1583 35.9741 43.2829 35.9512 43.4038C36.2794 43.2081 36.8099 42.7243 36.9206 42.984C36.9053 42.9591 36.9931 42.8987 37.0274 42.9236C36.8519 43.1121 36.974 43.1157 36.8252 43.2864C37.1 42.9769 37.4358 42.8346 37.7564 42.6781C38.0732 42.518 38.39 42.3686 38.5579 42.0057C38.6075 42.0449 38.5426 42.0982 38.5846 42.1374C38.7449 42.0306 38.6686 41.9631 38.8976 41.8421C38.9243 41.8955 38.9968 41.8563 39.0273 41.9026C39.1495 41.803 39.2945 41.6963 39.3403 41.6073C39.1266 41.7745 38.9892 41.7923 38.8899 41.7354C39.2525 41.5362 39.325 41.3156 39.7296 41.216C39.512 41.337 39.6418 41.3939 39.4204 41.5113C39.5159 41.5326 39.5655 41.65 39.7448 41.5077C39.7219 41.4686 39.6533 41.433 39.7143 41.3796C39.7677 41.5041 40.47 41.0808 40.7257 40.8531C40.6952 40.7286 40.5463 40.8887 40.5005 40.7962C40.5807 40.7749 40.6914 40.6824 40.802 40.5828C40.7562 40.718 40.783 40.6859 40.886 40.7571C41.0578 40.6504 40.8784 40.629 41.0081 40.533C41.0845 40.6219 41.2982 40.3693 41.4012 40.4049C41.531 40.1559 41.6531 40.1666 41.6799 40.2448C41.7944 40.0314 41.8859 39.9922 41.9394 39.8144C42.0615 39.7895 41.9661 39.8464 42.031 39.8998C42.2065 39.7041 42.1951 39.7326 42.3783 39.6365C42.4241 39.5511 42.4241 39.4764 42.4623 39.3839C42.5882 39.3484 42.6531 39.2203 42.5768 39.4017C43.0996 38.9606 42.9775 38.5693 43.2561 38.3843C43.0996 38.2135 43.363 38.0677 43.5805 37.9503C43.5805 37.8471 43.3782 37.993 43.4813 37.8756C43.6492 37.7938 43.7446 37.6942 43.8706 37.4949C43.9851 37.5127 43.8897 37.6266 43.924 37.6799C43.966 37.5448 44.1339 37.4309 44.1263 37.3811C44.0576 37.438 43.9927 37.4665 43.9355 37.4665C44.0271 37.3562 44.0042 37.2993 44.1377 37.1677L44.2141 37.221C44.3896 36.7265 44.9583 36.257 44.9736 36.0044C45.0652 35.8372 45.1186 35.9475 45.2026 35.8657C45.1682 35.8407 45.1262 35.8514 45.0842 35.8657C45.1262 35.7198 45.7063 35.2467 45.359 35.4743C45.5232 35.2467 45.6796 35.236 45.7063 35.0546C45.6224 35.1684 45.5575 35.1293 45.6224 35.0083C45.6186 35.1008 45.6873 35.0937 45.7712 34.955C45.756 34.8802 45.8094 34.7664 45.8476 34.6597C45.8361 34.834 46.046 34.4569 46.0651 34.3715C46.0346 34.4071 46.0002 34.4711 45.9735 34.4569C46.0269 34.3502 46.1376 34.0514 46.2598 34.0051C46.2788 34.0549 46.1414 34.2008 46.191 34.2364C46.3475 34.0905 46.2941 33.9909 46.3857 33.8059C46.6109 33.813 46.5307 33.2261 46.7788 33.2723C46.6109 33.4573 46.5918 33.6636 46.5536 33.8379C46.5116 34.0087 46.4658 34.1545 46.2788 34.2186C46.4353 34.3075 46.2292 34.4285 46.1376 34.681C46.2636 34.6704 46.1567 34.7949 46.1872 34.8411C46.359 34.617 46.2483 34.681 46.2598 34.6099C46.3208 34.5779 46.3857 34.4285 46.4429 34.4996C46.4086 34.5601 46.3475 34.6419 46.3742 34.6668C46.4849 34.4427 46.588 34.3538 46.6834 34.3502C46.733 34.1972 46.8093 34.0869 46.9086 33.9375C47.0002 33.781 47.1108 33.5889 47.2444 33.283C47.2444 33.162 47.1147 33.3186 47.1834 33.1264C47.6681 32.4826 47.7444 31.7497 48.0116 31.209C47.9619 31.0631 47.7978 31.2517 47.8932 30.9813C47.9887 30.8604 48.0383 30.9173 48.0993 30.9849C48.1757 30.437 48.4848 30.1667 48.6566 29.6011C48.4657 29.3022 48.939 28.5801 48.8169 28.1816C48.7901 28.4556 48.6985 28.7971 48.5535 28.9038C48.5001 28.6655 48.6375 27.9967 48.8321 28.1212C48.8016 27.7903 49.1107 27.5662 48.9428 27.4275C49.1756 27.4026 49.2825 26.7409 49.271 26.3531C49.271 26.4101 49.3206 26.2713 49.3397 26.1255C49.3893 25.7413 49.458 25.3108 49.5077 24.8875C49.5267 24.5566 49.5229 24.2258 49.4924 23.9234C49.5267 23.9234 49.5649 23.927 49.6107 23.9412C49.584 23.5784 49.5573 23.2191 49.5306 22.8633C49.5382 22.8704 49.5458 22.874 49.5649 22.8669C49.5115 22.689 49.5267 22.625 49.5 22.4578C49.4886 22.3368 49.4809 22.2194 49.4695 22.0985C49.5344 21.9491 49.584 21.6787 49.5993 21.5257C49.6069 21.6396 49.6909 21.5933 49.6756 21.7534C49.6298 22.0095 49.6489 22.3261 49.771 22.5111C49.7481 22.6321 49.7176 22.6356 49.6718 22.5716C49.7519 23.2546 49.6489 23.7633 49.7863 24.3894C49.6756 24.2329 49.6718 24.9622 49.7939 24.8021C49.7023 25.197 49.6069 25.7021 49.5573 26.2037C49.5306 26.4563 49.5115 26.7053 49.5077 26.9401C49.5038 27.0575 49.5038 27.1713 49.5077 27.2781C49.5038 27.3848 49.5038 27.4844 49.5077 27.5804C49.5496 27.2887 49.7328 26.7765 49.6451 26.5168C49.7634 26.6697 49.7099 26.2606 49.6603 26.2179L49.7557 26.2286C49.9618 24.9622 49.9847 23.6175 50 22.319ZM40.8707 5.86955C40.9814 5.81975 41.0501 5.97628 41.0921 6.0581C41.031 6.10078 40.886 5.90869 40.8707 5.86955ZM14.1013 42.4895C14.1127 42.333 14.3799 42.5607 14.4028 42.5216C14.5402 42.639 14.2386 42.5714 14.1013 42.4895ZM15.9523 43.5034C16.0324 43.3469 16.1317 43.5532 16.353 43.603C16.3072 43.6599 16.0744 43.5248 15.9523 43.5034ZM16.4179 43.0481C16.4446 42.9698 16.6965 43.0623 16.7538 43.1263C16.7232 43.1868 16.5171 43.0623 16.4179 43.0481ZM20.4139 44.5778C20.4673 44.56 20.5513 44.5635 20.6505 44.5778C20.6391 44.6204 20.6314 44.6631 20.6963 44.6774C20.6467 44.7378 20.3337 44.656 20.4139 44.5778ZM22.284 44.9122C22.2458 44.8268 22.4061 44.8552 22.4061 44.7983C21.9405 44.6916 21.4558 44.7556 21.307 44.5102C21.7077 44.6169 21.8718 44.5315 22.1848 44.4853C22.2611 44.5173 22.2954 44.5706 22.4138 44.5849C22.3222 44.6525 22.2687 44.624 22.1199 44.6027C22.1619 44.72 22.3183 44.7876 22.5817 44.8054C22.6237 44.9193 22.4863 44.9335 22.284 44.9122ZM47.5574 28.2065C47.6299 28.2137 47.5192 28.4022 47.5154 28.484C47.4963 28.4556 47.4772 28.4236 47.4696 28.3809C47.4925 28.3311 47.5154 28.2848 47.5345 28.235C47.5421 28.235 47.5498 28.2279 47.5574 28.2065ZM47.0383 32.1019C46.9086 32.3047 46.9429 32.2798 46.8284 32.5217C46.733 32.5893 46.6338 32.4932 46.7597 32.3047C46.8551 32.5359 46.859 32.0663 47.0383 32.1019ZM31.3827 43.2793C31.3675 43.354 31.085 43.4038 30.9553 43.4465C31.0049 43.2829 31.1537 43.3469 31.3827 43.2793ZM28.3562 44.5386C28.0279 44.5671 27.8753 44.5244 27.5089 44.5137C27.6768 44.3536 28.0241 44.4248 28.3676 44.3216C28.3638 44.3963 28.2989 44.4497 28.3562 44.5386ZM26.5624 44.56C26.5166 44.6631 26.3639 44.5635 26.3258 44.5493C26.299 44.4817 26.4899 44.5066 26.4861 44.4461C26.6921 44.4283 26.3601 44.5813 26.5624 44.56ZM27.2684 44.5208C27.2417 44.5955 27.0891 44.6276 27.0624 44.7023C26.9708 44.624 26.5586 44.7699 26.5166 44.656C26.7876 44.7094 26.9631 44.4995 27.2684 44.5208ZM26.8334 44.0904C26.6463 44.1331 26.4784 44.19 26.1693 44.2291C26.0357 44.0762 26.3029 44.0192 26.6387 43.941C26.9746 43.8698 27.3868 43.82 27.5471 43.7773C27.799 43.82 27.8677 43.9339 27.5356 44.0228C27.5432 43.9979 27.589 43.9837 27.5814 43.9552C27.2188 44.0086 27.0204 44.0477 26.8334 44.0904ZM26.2723 44.5849C25.8487 44.688 24.8602 44.6916 25.0968 44.5351C25.3983 44.6453 25.7838 44.4924 26.2723 44.5849ZM27.8562 43.8841C27.8219 43.8094 27.9593 43.788 28.0623 43.7595C28.0776 43.8378 27.9669 43.9232 27.8562 43.8841ZM28.2875 42.9698C27.8944 43.0232 27.4974 43.0587 27.1921 43.0979C27.0585 43.1477 27.2608 43.2224 27.3791 43.1939C27.341 43.2864 27.1463 43.2188 27.0509 43.2437C27.0356 43.1904 27.1082 43.1726 27.0853 43.1157C27.0509 43.0516 26.8143 43.1441 26.6998 43.1406C27.0471 42.9413 27.4097 42.8702 27.8295 42.8239C28.0394 42.8026 28.2646 42.7813 28.5012 42.7564C28.7378 42.7208 28.9897 42.6639 29.2645 42.5927C29.2722 42.6354 29.2798 42.6781 29.3447 42.6674C29.2035 42.735 29.0393 42.7955 28.86 42.8489C28.7722 42.8773 28.6768 42.9022 28.5814 42.9236C28.4821 42.9378 28.3867 42.9556 28.2875 42.9698ZM15.3073 39.3839C15.3302 39.3804 15.3569 39.3839 15.3798 39.3946C15.376 39.4017 15.3798 39.4088 15.3722 39.416C15.2997 39.4017 15.2653 39.3946 15.2462 39.3839C15.2691 39.3839 15.2882 39.3875 15.3073 39.3839ZM12.2426 38.1709C12.2273 38.1851 12.2082 38.1993 12.193 38.2135C12.1777 38.2064 12.1624 38.1993 12.1472 38.1922C12.1548 38.1815 12.1624 38.1709 12.1701 38.1602C12.1777 38.1495 12.1853 38.1388 12.193 38.1282C12.2082 38.1424 12.2235 38.1566 12.2426 38.1709ZM22.013 4.93395C21.971 4.97308 21.9062 4.99443 21.8069 5.00154C21.7917 5.00154 21.7764 5.00154 21.7611 5.00154C21.7191 4.98731 21.6504 4.99799 21.5817 5.00511C21.7191 4.93751 21.8642 4.92328 22.013 4.93395ZM48.6184 16.8513C48.6604 16.9829 48.626 17.0398 48.5879 17.0932C48.5421 16.9331 48.5306 16.7659 48.4772 16.6058C48.481 16.5738 48.4848 16.5453 48.4925 16.524C48.5993 16.8584 48.4581 16.8299 48.6184 16.8513ZM48.6985 17.1323C48.7176 17.2355 48.7367 17.3102 48.752 17.3778C48.7443 17.3742 48.7405 17.3707 48.7291 17.3707C48.7062 17.3422 48.6871 17.3137 48.6718 17.2853C48.6413 17.1928 48.6184 17.111 48.6985 17.1323ZM48.4886 24.6634C48.4963 24.5851 48.481 24.5388 48.4543 24.5104C48.4657 24.3788 48.4848 24.2543 48.5154 24.1618C48.5382 24.1973 48.5573 24.2365 48.5764 24.2756C48.584 24.2222 48.5611 24.144 48.5535 24.0728C48.5573 24.0657 48.5611 24.055 48.565 24.0479C48.5611 24.0337 48.5573 24.0159 48.5535 23.9981C48.5573 23.9732 48.5688 23.9519 48.5917 23.9376C48.5993 24.0444 48.6795 24.0408 48.6413 24.2222C48.4238 24.4392 48.5688 24.3183 48.4886 24.6634ZM28.4325 5.23989C28.3943 5.247 28.3753 5.23634 28.3638 5.22211C28.3867 5.21499 28.4134 5.21143 28.4401 5.20432C28.4401 5.22211 28.4363 5.23989 28.4325 5.23989ZM43.9889 10.9887C43.8897 10.9816 43.8057 10.9567 43.7981 10.8428C43.7981 10.8393 43.7981 10.8393 43.7981 10.8357C43.8629 10.8819 43.9278 10.9318 43.9889 10.9887ZM48.4276 22.9238C48.4199 22.8349 48.4123 22.7424 48.4047 22.6499C48.4085 22.6427 48.4123 22.6356 48.4123 22.6285C48.4352 22.5609 48.5001 22.504 48.5611 22.4471C48.5611 22.5396 48.5611 22.6356 48.565 22.7281C48.5726 22.9345 48.5879 23.1337 48.6222 23.3222C48.5726 23.3258 48.5115 23.3151 48.5192 23.4325C48.5688 23.4432 48.6413 23.4147 48.6451 23.4894C48.6222 23.6566 48.584 23.7918 48.5268 23.8985C48.4619 23.6246 48.4428 23.2831 48.4276 22.9238ZM48.5459 22.1269C48.5459 22.1412 48.5459 22.1589 48.5497 22.1732C48.5421 22.1554 48.5421 22.1412 48.5459 22.1269ZM45.3781 12.3903C45.3056 12.3191 45.3209 12.2195 45.4125 12.1519C45.4201 12.1484 45.4277 12.1448 45.4392 12.1448C45.5461 12.2658 45.6453 12.4045 45.7407 12.561C45.6033 12.5859 45.527 12.5397 45.3781 12.3903ZM45.2713 11.9776C45.1606 11.9492 45.0881 11.8816 45.0499 11.7784C45.1262 11.8389 45.1987 11.9029 45.2713 11.9776ZM48.4505 24.5602C48.4619 24.6278 48.4581 24.7025 48.4428 24.7772C48.4428 24.706 48.4428 24.6313 48.4505 24.5602ZM49.1718 19.3272C49.1871 19.2846 49.21 19.2383 49.2367 19.1956C49.2405 19.2917 49.2252 19.3735 49.1833 19.4055C49.1794 19.3806 49.1756 19.3521 49.1718 19.3272ZM49.0955 18.7687C49.0955 18.7509 49.0955 18.726 49.0993 18.7118C49.1222 18.7367 49.1413 18.7758 49.1604 18.8256C49.1413 18.8114 49.1184 18.7936 49.0955 18.7687ZM48.9008 18.1569C48.8207 18.3205 48.9352 18.5162 48.9924 18.4948C48.9848 18.5695 48.9619 18.5944 48.9352 18.598C48.9085 18.566 48.8817 18.5339 48.8588 18.5019C48.8512 18.4806 48.8474 18.4592 48.8436 18.4379C48.813 18.4023 48.7787 18.3703 48.7443 18.3418C48.7253 18.3098 48.7062 18.2814 48.6985 18.2636C48.6718 18.2031 48.7482 18.1213 48.8283 18.132C48.8474 18.1355 48.8703 18.1391 48.8894 18.1462C48.897 18.1497 48.897 18.1533 48.9008 18.1569ZM48.4466 16.5311C48.4428 16.5276 48.4428 16.5204 48.439 16.5133C48.4276 16.4884 48.4276 16.4706 48.4314 16.4493C48.439 16.4778 48.4428 16.5062 48.4466 16.5311ZM22.3832 5.00866C22.3451 5.0051 22.3145 4.99799 22.284 4.98376C22.3145 4.99087 22.3489 4.99799 22.3832 5.00866ZM30.1347 43.3433C30.1805 43.4714 29.963 43.3718 29.8103 43.4536C29.8637 43.3647 29.9859 43.3576 30.1347 43.3433ZM42.6378 37.7546C42.6989 37.8542 42.4699 37.9218 42.3363 38.1139C42.2981 38.0748 42.2333 38.1246 42.1989 38.0784C42.3516 37.9574 42.5042 37.8258 42.6378 37.7546ZM42.9355 37.3953C42.966 37.4274 43.0004 37.4558 43.05 37.4096C43.1225 37.4665 42.8821 37.6977 42.7943 37.7262C42.7523 37.6515 42.8057 37.5376 42.9355 37.3953ZM47.6604 27.9326C47.6719 27.9397 47.6833 27.9433 47.6948 27.9504C47.6566 28.0322 47.6413 28.0393 47.6223 28.0287C47.6337 27.9931 47.649 27.9646 47.6604 27.9326ZM48.3627 25.6701C48.3589 25.6239 48.3551 25.5812 48.3474 25.542C48.3665 25.5243 48.3856 25.51 48.4047 25.5029C48.4008 25.5563 48.3856 25.6132 48.3627 25.6701ZM48.481 25.3073C48.4695 25.2361 48.4581 25.1436 48.4505 25.044C48.4696 24.9622 48.4924 24.8875 48.5421 24.7808C48.5268 25.0333 48.5001 25.1152 48.5115 25.3001C48.5039 25.3037 48.4924 25.3073 48.481 25.3073ZM49.2519 20.3696C49.2825 20.2308 49.2939 20.0921 49.2672 19.9213C49.4466 19.9889 49.3703 20.3874 49.2787 20.5297C49.271 20.4763 49.2596 20.4229 49.2519 20.3696ZM49.2023 19.5193C49.2596 19.5834 49.2939 19.7079 49.3207 19.8537C49.2062 19.9213 49.168 19.6118 49.2023 19.5193ZM48.7443 16.6983L48.6184 16.7303C48.5726 16.6343 48.6451 16.4742 48.5382 16.4493C48.5154 16.2536 48.6184 16.4955 48.6489 16.4813C48.6642 16.4066 48.6222 16.3639 48.5688 16.307C48.5917 16.2892 48.6108 16.2714 48.6298 16.2536C48.71 16.371 48.7672 16.5169 48.7443 16.6983ZM48.4963 15.7307C48.4543 15.7271 48.4314 15.624 48.4085 15.5422C48.4123 15.5422 48.4161 15.5422 48.4199 15.5422C48.4505 15.5386 48.4772 15.5173 48.4963 15.4924C48.5764 15.6524 48.4848 15.6382 48.4963 15.7307ZM47.9734 15.1686C47.9848 15.1615 48.0154 15.1651 48.0306 15.1757C48.1413 15.2433 48.2138 15.3287 48.2406 15.4568C48.252 15.5173 48.3054 15.5386 48.3665 15.5422C48.378 15.5884 48.3856 15.6382 48.3856 15.7022C48.355 15.7094 48.3627 15.7592 48.3398 15.7769C48.2596 15.5173 48.107 15.6062 48.294 15.7307C48.3016 15.7663 48.3093 15.8018 48.3169 15.8374C48.2138 15.8339 48.1108 15.8339 48.0077 15.8232C47.9772 15.8196 47.9314 15.7485 47.939 15.7165C47.9619 15.6311 48.0459 15.5457 48.0345 15.4746C48.0192 15.3927 47.9085 15.3323 47.9314 15.2255C47.9314 15.2042 47.9505 15.1829 47.9734 15.1686ZM46.8819 13.2868C46.8437 13.269 46.8055 13.2547 46.7674 13.2725C46.7445 13.2192 46.7177 13.1765 46.6948 13.1373C46.6872 13.1018 46.6834 13.0626 46.6834 13.0271C46.7445 13.1053 46.817 13.2014 46.8819 13.2868ZM42.7294 7.9791C42.7523 8.004 42.779 8.03246 42.8019 8.05736C42.7981 8.06447 42.7943 8.07515 42.7867 8.08226C42.6531 8.05736 42.5882 7.89372 42.5081 7.7372C42.5806 7.81902 42.6531 7.90084 42.7294 7.9791ZM40.5158 7.32098C40.5272 7.32809 40.5349 7.34232 40.5425 7.35655C40.5158 7.34588 40.4891 7.33521 40.4624 7.32809C40.4738 7.31387 40.4929 7.30675 40.5158 7.32098ZM21.139 5.06202C21.139 5.08692 21.139 5.11183 21.1428 5.13317C21.2039 5.13317 21.2421 5.10115 21.265 5.05846C21.368 5.05846 21.4711 5.06202 21.5779 5.06558C21.5398 5.14384 21.4634 5.19364 21.3909 5.23989C21.2688 5.3146 21.181 5.27191 21.139 5.1474C21.097 5.16163 21.0512 5.1723 21.0093 5.19009C20.807 5.28614 20.7345 5.28258 20.6276 5.15452C20.6238 5.15096 20.62 5.14384 20.6162 5.14028C20.7879 5.08692 20.9596 5.06913 21.139 5.06202ZM19.6467 5.28258C19.8223 5.25057 19.9902 5.23633 20.1429 5.23633C20.1047 5.26835 20.0551 5.2897 19.975 5.28614C19.9254 5.28614 19.8567 5.28614 19.8338 5.3146C19.662 5.51737 19.3872 5.35017 19.1964 5.47824C19.0628 5.56717 18.9865 5.52093 18.9216 5.45334C19.1659 5.37507 19.4139 5.32171 19.6467 5.28258ZM6.95662 33.9091C6.93372 33.9055 6.91463 33.8379 6.91845 33.8024C6.92227 33.7846 6.93372 33.7668 6.94517 33.749C6.95662 33.7312 6.97188 33.717 6.98333 33.6992C7.00242 33.7348 7.03295 33.7668 7.04058 33.8024C7.05203 33.8593 7.0444 33.9269 6.95662 33.9091ZM7.65505 35.6985C7.64742 35.7305 7.60162 35.7518 7.5749 35.7803C7.55964 35.7625 7.5291 35.7483 7.5291 35.7305C7.52147 35.6664 7.52147 35.6024 7.51765 35.5384C7.51384 35.5384 7.51002 35.5384 7.5062 35.5384C7.5062 35.5348 7.5062 35.5277 7.5062 35.5241C7.47185 35.5099 7.4375 35.4957 7.40697 35.4779C7.39934 35.4743 7.41079 35.4316 7.4146 35.4316C7.49857 35.421 7.50239 35.4708 7.5062 35.5241C7.51002 35.5241 7.51384 35.5277 7.51765 35.5277C7.51765 35.5313 7.51765 35.5348 7.51765 35.5384C7.62833 35.5384 7.68558 35.5917 7.65505 35.6985ZM8.11686 36.0898C8.07869 36.0684 8.04052 36.0471 7.99854 36.0257C8.04052 36.0044 8.08251 35.9688 8.12449 35.9724C8.16647 35.9724 8.20464 36.0115 8.24662 36.0364C8.20464 36.0506 8.15884 36.072 8.11686 36.0898ZM8.426 36.3957C8.42218 36.4491 8.41837 36.5024 8.33058 36.4882C8.32677 36.4882 8.31532 36.4455 8.32295 36.4419C8.35348 36.4242 8.38783 36.4099 8.426 36.3957C8.426 36.3922 8.426 36.385 8.426 36.3815C8.42982 36.3815 8.43363 36.3815 8.43745 36.3815C8.43363 36.2961 8.42218 36.2107 8.49851 36.1431C8.54431 36.104 8.69316 36.104 8.68934 36.1431C8.68553 36.1787 8.67408 36.2214 8.65118 36.2463C8.59393 36.3103 8.54431 36.3886 8.43363 36.3815C8.43363 36.385 8.43363 36.3886 8.43363 36.3922C8.43363 36.3922 8.42982 36.3957 8.426 36.3957ZM9.02902 36.5273C8.92215 36.755 8.69698 36.9293 8.67408 37.1997C8.67408 37.2139 8.58248 37.2353 8.54431 37.2246C8.50615 37.2139 8.4489 37.1605 8.45271 37.1356C8.52523 36.8688 8.65118 36.6198 8.83056 36.3993C8.84582 36.3815 8.92597 36.3993 8.97177 36.4099C8.97177 36.4099 8.97177 36.4099 8.97559 36.4099C8.98704 36.4206 8.99849 36.4313 9.01375 36.4419C9.01757 36.4491 9.02138 36.4526 9.02902 36.4562C9.0252 36.4846 9.04047 36.5095 9.02902 36.5273ZM11.3151 38.2954C11.2884 38.3487 11.2503 38.3701 11.193 38.3523C11.2083 38.306 11.2388 38.2669 11.3151 38.2562C11.4449 38.2384 11.5022 38.3132 11.4869 38.4199C11.4869 38.4341 11.4907 38.4412 11.4907 38.4519C11.4487 38.4128 11.3991 38.363 11.3151 38.2954ZM12.2693 38.5159C12.2693 38.5195 12.2655 38.5266 12.2655 38.5302L12.254 38.5195C12.2578 38.5195 12.2617 38.5195 12.2693 38.5159C12.2731 38.5053 12.2769 38.4946 12.2807 38.4839C12.2922 38.491 12.3036 38.4946 12.3113 38.5017C12.296 38.5088 12.2807 38.5124 12.2693 38.5159ZM17.4255 42.2654C16.9522 42.0627 16.4904 41.8599 15.9294 41.7638C15.7462 41.6856 15.5668 41.5753 15.3722 41.4615C15.3531 41.4472 15.3302 41.433 15.3073 41.4223C15.3951 41.4401 15.4829 41.4579 15.5668 41.4757C15.7767 41.5184 15.979 41.5611 16.1813 41.618C16.3874 41.6678 16.6011 41.7318 16.8301 41.8279C17.2156 41.6678 17.7614 42.3046 18.1277 42.2583C17.9827 42.0413 18.601 42.2192 18.9559 42.2583C18.8987 42.3544 18.9407 42.4789 18.9636 42.6532C18.3987 42.5998 17.9102 42.4326 17.4255 42.2654ZM24.5663 43.3825C24.6808 43.3149 24.7495 43.4536 24.9556 43.4216C24.9518 43.3931 24.8869 43.4038 24.8411 43.3967C24.8526 43.354 25.0052 43.3789 25.0014 43.3291C24.9365 43.2651 24.6541 43.3362 24.5052 43.3255C24.7304 43.1761 25.2915 43.1868 25.4747 43.0908C25.5663 43.1512 25.5281 43.2508 25.4937 43.2722C25.5548 43.3718 25.6159 43.2686 25.7189 43.3184C25.8678 43.2686 25.5395 43.2686 25.593 43.1761C26.0128 43.1477 26.112 43.1797 26.2952 43.073C26.4746 43.0979 26.2952 43.1263 26.6234 43.0587C26.6807 43.2615 26.28 43.1584 26.1502 43.2331C26.3525 43.3611 26.841 43.0303 26.8753 43.2366C26.7036 43.2544 26.5242 43.29 26.3372 43.3255C26.1502 43.3504 25.9555 43.3789 25.7571 43.4038C25.364 43.4501 24.9518 43.475 24.5663 43.3825ZM24.6923 44.6133C24.6388 44.7058 24.8258 44.6596 24.9289 44.6631C24.7381 44.7129 24.4251 44.7272 24.0778 44.7378C23.7267 44.7272 23.3412 44.7094 22.9977 44.7307C23.4099 44.5066 24.074 44.72 24.6923 44.6133ZM22.8221 44.8125C23.1542 44.8623 23.2343 44.841 23.5893 44.8695C23.2572 44.7165 24.3259 44.7948 24.4137 44.8659C24.135 44.9513 23.8068 44.9335 23.4977 44.9157C23.1885 44.9015 22.9023 44.8872 22.7 44.9584C22.6504 44.8623 22.7954 44.8695 22.8221 44.8125ZM22.6351 45.0793C22.6847 44.9762 22.845 45.0545 22.9328 45.09C22.9175 45.1612 22.6695 45.0971 22.6351 45.0793ZM26.6616 45.2465L26.6463 45.1505C26.6196 45.1576 26.5929 45.1612 26.5662 45.1683C26.4364 45.1896 26.3029 45.2039 26.1616 45.2216C25.883 45.2537 25.5892 45.2821 25.2915 45.2999C24.6923 45.3319 24.0587 45.3604 23.4671 45.2572C23.4023 45.2643 23.4252 45.3177 23.3488 45.3141C23.2076 45.2999 23.1007 45.2679 22.9901 45.2394C23.0053 45.1469 23.2878 45.2003 23.471 45.1967C23.4748 45.1541 23.4786 45.1114 23.4099 45.1042C23.99 45.09 25.0396 45.0936 25.8945 44.8766C26.0891 44.8979 26.2761 44.9228 26.3868 44.994C26.5586 44.9584 26.3372 44.9015 26.3677 44.8446C26.5166 44.8161 26.654 44.9335 26.7265 44.8374C26.9021 44.841 26.799 44.873 26.8028 44.9477C27.0967 44.8623 27.3066 44.7948 27.5013 44.7876C27.5432 44.6809 27.3104 44.7699 27.1959 44.7699C27.3639 44.6382 27.7799 44.6169 27.9592 44.656C28.0279 44.7627 27.7226 44.8944 28.0623 44.8552C27.8219 45.0011 27.1043 44.8944 27.0013 45.0438C27.4669 45.0545 28.2455 44.8268 28.5203 44.9691C27.9058 45.2039 27.3372 45.1114 26.6616 45.2465ZM29.3905 44.5244C29.3828 44.471 29.3027 44.4781 29.3027 44.4212C29.524 44.3359 29.5012 44.4675 29.7225 44.3821C29.6767 44.4426 29.4859 44.4746 29.3905 44.5244ZM30.9591 43.9766C30.253 44.0797 29.6462 44.2505 28.9248 44.3857C28.9477 44.439 29.1233 44.3572 29.1691 44.3892C29.1844 44.4817 28.8294 44.5279 28.8142 44.4355C28.6653 44.5208 28.6577 44.5493 28.7455 44.6596C28.4783 44.5955 28.4249 44.5173 28.5165 44.4497C28.6119 44.3785 28.8561 44.3252 29.192 44.2576C29.1309 44.2256 28.9974 44.2576 28.8905 44.2683C28.8409 44.1829 29.1462 44.1829 29.1538 44.1117C29.234 44.1011 29.2225 44.1758 29.2416 44.2149C29.7874 44.0513 29.8256 44.0264 30.4209 43.8627C30.5316 43.9516 30.7072 43.7916 30.8599 43.8769C31.0049 43.8129 30.6652 43.8556 30.8179 43.7631C31.2262 43.6848 31.2148 43.7702 31.6194 43.5817C31.5965 43.4999 31.272 43.7382 31.3102 43.5924C31.5812 43.5497 31.772 43.4572 31.959 43.3362C32.0048 43.3967 31.9934 43.4465 31.9628 43.4963C32.1117 43.4536 32.127 43.3931 32.0812 43.3255C32.3483 43.1975 32.4399 43.258 32.5697 43.2829C32.3674 43.5888 31.2873 43.7418 30.9591 43.9766ZM36.2603 42.6461C36.2527 42.4895 36.4931 42.4753 36.6267 42.333C36.6763 42.4255 36.371 42.5429 36.2603 42.6461ZM37.9472 42.3117C37.848 42.5322 37.8556 42.269 37.6992 42.3864C37.6915 42.3437 37.8175 42.2868 37.8938 42.237C37.9167 42.2761 37.9358 42.3117 38.0007 42.2797C38.0083 42.3152 37.9549 42.3259 37.9472 42.3117ZM37.7526 41.8563L37.9587 41.7354L38.0159 41.8101C37.9091 41.8563 37.7869 41.931 37.7526 41.8563ZM37.993 41.6785C37.9511 41.6144 38.119 41.5184 38.2487 41.4259L38.306 41.497C38.1877 41.586 38.0732 41.6678 37.993 41.6785ZM37.9053 41.5326C37.5847 41.7389 37.2564 41.931 37.0923 42.0627C37.1114 41.9382 37.3862 41.7461 37.7144 41.5362C38.0388 41.3227 38.4014 41.0666 38.6419 40.8816C38.5121 41.0701 38.2144 41.3085 37.9053 41.5326ZM40.1761 41.0808C40.0654 41.0132 40.0464 41.0168 40.0769 40.8852C40.1952 40.878 40.3822 40.9278 40.1761 41.0808ZM40.3593 40.8318C40.3059 40.8318 40.2257 40.8923 40.1952 40.8354C40.2525 40.8176 40.3097 40.7998 40.2944 40.7642C40.3517 40.7286 40.367 40.782 40.4318 40.7322C40.4242 40.7713 40.4166 40.8105 40.4471 40.8389C40.3899 40.878 40.2906 40.8923 40.3593 40.8318ZM41.2371 40.4191C41.2219 40.3765 41.3364 40.3017 41.4012 40.2377C41.3669 40.2199 41.2982 40.2911 41.2371 40.3373C41.1532 40.3338 41.302 40.1452 41.1493 40.2484C41.1608 40.1772 41.4089 40.1594 41.4928 40.1559C41.3364 40.3053 41.4394 40.316 41.2371 40.4191ZM42.3401 38.6511L42.4126 38.7116L42.2027 38.925C42.1188 38.8788 42.2905 38.7436 42.3401 38.6511ZM42.6836 39.0175C42.7218 38.8788 42.6225 38.9855 42.5081 39.1065C42.4623 38.9713 42.7828 38.8539 42.9126 38.7329C42.9622 38.7863 42.7447 38.9286 42.6836 39.0175ZM42.8706 38.2384C42.8286 38.4946 42.7561 38.7294 42.3401 38.9642C42.3821 38.797 42.7638 38.5657 42.6302 38.3523C43.0157 38.025 43.2523 37.7013 43.4622 37.5697C43.4584 37.8044 43.1111 38.1495 42.8706 38.2384ZM43.9736 37.0574C43.7599 37.2815 43.6416 37.3349 43.5538 37.5625L43.4278 37.47C43.6797 37.253 43.8744 36.8724 44.1683 36.6163C44.1683 36.787 43.9202 36.8973 43.9736 37.0574ZM46.5155 33.347C46.4086 33.3434 46.4773 33.2189 46.3666 33.2154C46.462 33.1585 46.546 32.8561 46.6452 32.9557C46.5765 32.8347 46.8093 32.6142 46.9124 32.4327C46.7139 32.7707 46.6948 33.1087 46.5155 33.347ZM46.5574 34.3502C46.5116 34.3217 46.4582 34.3502 46.4086 34.4107C46.3513 34.3715 46.4277 34.2541 46.5116 34.1296C46.5155 34.247 46.5918 34.119 46.5956 34.2364C46.6681 34.1474 46.7483 33.9091 46.8132 34.0087C46.7292 34.0549 46.6414 34.215 46.5574 34.3502ZM46.8971 33.717C46.8857 33.5356 46.9811 33.5 47.0918 33.3434C47.0994 33.5249 47.0078 33.5605 46.8971 33.717ZM47.1185 31.5754C47.0994 31.5149 47.1147 31.4189 47.1719 31.2873C47.2635 31.305 47.2063 31.5185 47.1185 31.5754ZM47.065 30.7643C47.0612 30.6114 47.149 30.5616 47.1986 30.3268C47.294 30.3623 47.1376 30.7003 47.065 30.7643ZM47.3895 29.5548C47.4811 29.6331 47.3017 29.7682 47.3131 29.9461C47.1795 29.9568 47.3666 29.6829 47.3895 29.5548ZM47.3742 30.5046C47.3398 30.2912 47.3856 30.1916 47.4429 29.8679C47.462 29.9604 47.4085 30.2592 47.5459 29.9568C47.6528 30.0706 47.4314 30.3019 47.3742 30.5046ZM47.836 28.0358C47.7101 28.5872 47.7673 28.7971 47.7558 29.0639C47.7291 29.1919 47.649 29.103 47.6146 29.2026C47.7864 29.1493 47.6681 29.5655 47.5879 29.843C47.4849 29.7931 47.4276 29.7932 47.4238 29.7362C47.4811 29.69 47.5269 29.4943 47.5116 29.4054C47.3933 29.5406 47.4582 29.2168 47.3818 29.1955C47.4353 29.0888 47.4658 29.0923 47.4925 29.167C47.5345 28.7473 47.752 28.2635 47.7864 27.8472C47.8207 27.8615 47.8322 27.9575 47.8818 27.865C47.7482 27.9255 47.9123 27.6765 47.8284 27.6836C47.7864 27.7441 47.7597 27.7263 47.7444 27.6765C47.7902 27.5484 47.836 27.4204 47.8742 27.2887C47.9925 27.2496 47.8169 27.5271 47.9009 27.5271C47.9505 27.2816 48.1795 26.9081 48.065 26.8156C47.9963 27.0575 48.0001 27.1607 47.878 27.2745C47.8818 27.2674 47.8818 27.2603 47.8856 27.2532C47.939 27.0397 47.981 26.8192 48.0154 26.5915C48.065 26.5915 48.107 26.5701 48.149 26.5381C48.149 26.5417 48.149 26.5417 48.1451 26.5452C48.2367 26.6662 48.2177 26.8227 48.1795 26.9828C48.1375 27.1429 48.0688 27.303 48.0879 27.4488C48.0077 27.5769 47.9658 27.5627 47.92 27.5911C48.0039 27.7014 47.9009 28.2172 47.8589 28.3275C47.752 28.3346 47.9009 28.0749 47.836 28.0358ZM47.8322 30.8319C47.9352 30.6434 47.8665 30.5438 47.981 30.4477C48.1375 30.4228 47.939 30.9386 47.8322 30.8319ZM47.9887 30.3268C48.1222 30.2414 48.2329 30.0102 48.3818 30.0102C48.2673 30.22 48.1528 30.4228 47.9887 30.3268ZM49.2977 20.6755C49.2977 20.6755 49.2977 20.6791 49.2977 20.6826C49.2977 20.6826 49.2977 20.6791 49.2977 20.6755ZM49.4428 20.4265C49.4695 20.3375 49.4733 20.6719 49.5077 20.8889C49.3626 20.8285 49.397 20.5652 49.4428 20.4265Z" fill="#EB5310"/>
</svg>
