<svg width="193" height="194" viewBox="0 0 193 194" fill="none" xmlns="http://www.w3.org/2000/svg">
<path opacity="0.2" d="M192.028 100.399C191.054 90.5772 188.552 82.198 184.595 75.498C180.806 69.0831 175.666 64.1231 169.324 60.7552C156.888 54.1544 140.321 53.7861 120.084 59.6634C114.128 61.3923 108.735 63.4169 104.376 65.2392C103.775 60.5535 102.831 54.8731 101.349 48.847C96.3206 28.3823 87.7202 14.2202 75.7857 6.75082C69.6974 2.93942 62.8326 0.971319 55.3827 0.897531C47.5993 0.818594 39.0921 2.84195 30.0989 6.90886C19.1069 11.8796 11.0379 19.1688 6.11788 28.5804C1.80287 36.8325 -0.0884412 46.4922 0.335759 58.1057C1.06557 78.0621 8.60563 100.412 15.9002 122.027C23.3359 144.064 33.82 179.226 31.3943 193.479C31.4539 193.431 76.6303 174.833 99.4323 170.254C121.799 165.764 144.926 161.12 162.572 151.773C172.844 146.334 180.262 139.866 185.251 132.003C190.941 123.036 193.219 112.404 192.028 100.399ZM36.6371 182.536C36.6336 182.563 36.6317 182.576 36.6317 182.576C36.6204 182.584 36.6329 182.548 36.6371 182.536ZM97.5012 90.2101C76.9364 81.5805 53.4054 78.6076 49.1718 100.712C44.5855 124.657 38.5803 168.205 37.0171 179.719C41.5398 133.71 -26.8376 41.6325 33.3961 14.3989C94.3219 -13.1464 97.188 75.8533 97.2402 77.5987C98.7759 76.7701 177.287 34.7536 183.893 101.288C188.628 148.976 139.136 107.681 97.5012 90.2101Z" fill="white"/>
</svg>
