<svg width="205" height="288" viewBox="0 0 205 288" fill="none" xmlns="http://www.w3.org/2000/svg">
<path d="M209.263 40.765C209.263 63.3475 200.53 101.426 233.508 142.59C265.719 182.797 221.405 55.4797 176.9 47.5994C124.876 38.3879 214.533 251.677 219.156 208.27C221.743 183.986 146.491 56.5213 125.324 77.6885C98.3965 104.616 169.005 258.422 185.492 255.892C214.578 251.43 110.552 74.5106 81.0346 89.748C45.8375 107.918 103.852 229.17 130.772 235.673C152.308 240.876 71.985 123.369 18.2354 150.263" stroke="#EB5310" stroke-width="8" stroke-linecap="round"/>
<path d="M15.3713 142.201C14.6865 140.975 12.8128 141.608 13.0109 142.998C13.1297 143.832 12.4168 144.547 11.5825 144.431L8.93932 144.065C6.8192 143.771 5.78124 146.563 7.57866 147.725L8.06355 148.039C9.26525 148.816 9.09998 150.623 7.77726 151.169L7.10795 151.445C5.68783 152.031 5.88864 154.103 7.39492 154.406C8.30833 154.589 8.851 155.545 8.56021 156.431C8.10803 157.807 9.5568 159.066 10.832 158.378L10.9598 158.309C12.2893 157.593 13.796 158.909 13.2637 160.323C12.6454 161.965 14.6971 163.294 15.9427 162.058L18.0222 159.996C18.6582 159.365 19.6359 159.234 20.4155 159.675L21.195 160.116C23.0479 161.164 25.0035 158.927 23.7854 157.181C23.1863 156.323 23.3437 155.137 24.1557 154.475L26.7149 152.392C28.1745 151.204 27.3343 148.841 25.4523 148.841H24.8993C23.9431 148.841 23.1322 148.139 22.9957 147.192L22.7448 145.452C22.5225 143.911 20.3832 143.7 19.8645 145.168C19.4373 146.378 17.7839 146.518 17.1583 145.399L15.3713 142.201Z" fill="#FCB006"/>
</svg>
