<svg width="36" height="36" viewBox="0 0 36 36" fill="none" xmlns="http://www.w3.org/2000/svg">
<g clip-path="url(#clip0_90_745)">
<path d="M17.99 4.74549C10.1431 -2.11775 0.165878 3.91249 0.00227293 12.0875C-0.0394192 14.1709 0.561988 16.2003 1.75911 18.0712H9.51849L10.8986 15.7709C11.2994 15.1031 12.2692 15.0816 12.6926 15.7474L15.6046 20.3232L19.8492 11.3624C20.2194 10.5806 21.3226 10.5557 21.7308 11.3139L25.3694 18.0712H34.2209C40.7779 7.82326 27.8191 -3.85132 17.99 4.74549Z" fill="#EB5310"/>
<path d="M23.8108 19.6258L20.8624 14.1502L16.6931 22.952C16.3384 23.7008 15.2951 23.7658 14.8503 23.0667L11.8292 18.3194L11.0197 19.6684C10.8291 19.9861 10.4859 20.1804 10.1154 20.1804H3.42725C3.6369 20.3998 2.51951 19.2847 17.246 33.9348C17.6573 34.3441 18.3222 34.3442 18.7335 33.9348C33.2334 19.5101 32.343 20.3994 32.5523 20.1804H24.7393C24.3513 20.1805 23.9947 19.9674 23.8108 19.6258Z" fill="#EB5310"/>
</g>
<defs>
<clipPath id="clip0_90_745">
<rect width="36" height="36" fill="white"/>
</clipPath>
</defs>
</svg>
