<svg width="36" height="36" viewBox="0 0 36 36" fill="none" xmlns="http://www.w3.org/2000/svg">
<path d="M17.2078 7.34403L20.5198 4.10403L20.1598 3.81603C19.2238 2.95203 17.7838 2.95203 16.9198 3.81603L15.6238 5.11203C15.6238 5.18403 16.1278 5.97603 17.2078 7.34403Z" fill="#FC633B"/>
<path d="M30.528 20.088L30.6 20.16L31.896 18.864C32.184 18.576 32.4 18.216 32.472 17.784L29.304 19.296C29.736 19.584 30.168 19.8 30.528 20.088Z" fill="#FC633B"/>
<path d="M26.4238 3.60002C26.8558 3.38402 27.2158 3.31202 27.6478 3.31202C28.0798 3.31202 28.5118 3.38402 28.9438 3.60002L27.1438 1.80002C26.2078 0.864022 24.6958 0.864022 23.7598 1.80002L18.0718 7.48802L26.4238 3.60002Z" fill="#FC633B"/>
<path d="M34.3438 9.07204L30.3838 5.04004L33.9838 12.744L34.3438 12.384C35.2798 11.52 35.2798 10.008 34.3438 9.07204Z" fill="#FC633B"/>
<path d="M29.736 5.40002C29.232 4.24802 27.864 3.81602 26.784 4.32002L18 8.42402C18.432 9.00002 18.864 9.50402 19.368 10.008L25.92 6.91202C26.424 8.06402 27.792 8.56802 28.944 7.99202L31.248 12.888C30.096 13.392 29.592 14.76 30.168 15.912L27 17.424C27.576 17.856 28.08 18.288 28.656 18.72C28.728 18.792 28.728 18.792 28.8 18.792L32.76 16.92C33.912 16.416 34.344 15.048 33.84 13.968L29.736 5.40002Z" fill="#FC633B"/>
<path d="M24.5519 13.032C23.9039 11.664 22.6079 11.016 21.5279 11.52C21.3119 11.592 21.0959 11.736 20.9519 11.952C22.1039 13.176 23.3279 14.328 24.6239 15.48C24.9839 14.76 24.9839 13.896 24.5519 13.032Z" fill="#FC633B"/>
<path d="M15.0479 5.61603L1.58386 19.152C1.36786 19.368 1.22386 19.584 1.15186 19.8L3.45586 19.512H3.88786C4.82386 19.512 5.68786 19.872 6.33586 20.52L15.2639 29.52C15.9839 30.24 16.3439 31.32 16.2719 32.4L15.9839 34.704C16.1999 34.632 16.4159 34.488 16.6319 34.272L30.1679 20.736C29.5199 20.232 28.8719 19.8 28.2239 19.296C22.9679 15.264 18.5759 10.728 15.0479 5.61603Z" fill="#FC633B"/>
<path d="M5.75988 21.024C5.18388 20.448 4.31988 20.16 3.52788 20.232L1.00788 20.592C0.935885 21.168 1.15188 21.744 1.65588 22.248L13.6799 34.272C14.1119 34.704 14.7599 34.92 15.3359 34.92L15.6959 32.4C15.7679 31.536 15.5519 30.744 14.9039 30.168L5.75988 21.024Z" fill="#FC633B"/>
</svg>
