<svg width="36" height="36" viewBox="0 0 36 36" fill="none" xmlns="http://www.w3.org/2000/svg">
<g clip-path="url(#clip0_90_176)">
<path d="M35.2962 9.02488L18.3509 3.04614C18.1239 2.96598 17.8762 2.96598 17.6491 3.04614L0.703829 9.02488C0.282517 9.17352 0.000563343 9.57149 8.42838e-07 10.0183C-0.000561657 10.465 0.280477 10.8636 0.701438 11.0132L17.6468 17.0374C17.761 17.0781 17.8805 17.0984 18 17.0984C18.1195 17.0984 18.239 17.0781 18.3532 17.0374L35.2986 11.0132C35.7195 10.8636 36.0005 10.465 36 10.0183C35.9994 9.57149 35.7175 9.17352 35.2962 9.02488Z" fill="#EB5310"/>
<path d="M33.4668 23.1029V13.9032L31.3574 14.6531V23.1029C30.7221 23.4686 30.2939 24.1538 30.2939 24.9395C30.2939 25.7252 30.7221 26.4105 31.3574 26.7762V31.9593C31.3574 32.5418 31.8296 33.014 32.4121 33.014C32.9946 33.014 33.4668 32.5418 33.4668 31.9593V26.7762C34.1021 26.4106 34.5303 25.7253 34.5303 24.9396C34.5303 24.1538 34.1022 23.4686 33.4668 23.1029Z" fill="#EB5310"/>
<path d="M18 19.2078C17.638 19.2078 17.2814 19.1463 16.9402 19.025L7.41406 15.6384V20.2796C7.41406 21.415 8.59862 22.3753 10.9348 23.1335C12.9711 23.7945 15.4803 24.1585 18 24.1585C20.5197 24.1585 23.0289 23.7945 25.0652 23.1335C27.4014 22.3753 28.586 21.415 28.586 20.2796V15.6384L19.0599 19.025C18.7186 19.1463 18.3621 19.2078 18 19.2078Z" fill="#EB5310"/>
</g>
<defs>
<clipPath id="clip0_90_176">
<rect width="36" height="36" fill="white"/>
</clipPath>
</defs>
</svg>
