<svg width="36" height="36" viewBox="0 0 36 36" fill="none" xmlns="http://www.w3.org/2000/svg">
<path d="M35.0999 16.642C35.0999 20.5527 31.9271 23.6886 28.0533 23.6886H8.79504C4.44164 23.6886 0.899902 20.1469 0.899902 15.7935C0.899902 11.2187 4.81058 7.52937 9.45911 7.8983C10.8242 3.91386 14.6611 1.10999 18.9407 1.10999C23.9951 1.10999 28.164 4.79931 28.865 9.66919C32.3698 10.0381 35.0999 13.0265 35.0999 16.642Z" fill="#FC633B"/>
<path d="M8.15492 27.637C10.0519 30.594 10.0519 31.5425 10.0519 31.8493C10.0519 33.5231 8.68495 34.89 7.01117 34.89C5.33739 34.89 3.97046 33.5231 3.97046 31.8493C3.97046 31.5425 3.97046 30.6219 5.86741 27.637C6.09058 27.2464 6.53693 27.0233 6.98326 27.0233C7.45751 27.0233 7.87595 27.2464 8.15492 27.637Z" fill="#FC633B"/>
<path d="M19.1437 27.637C21.0406 30.594 21.0406 31.5425 21.0406 31.8493C21.0406 33.5231 19.6737 34.89 17.9999 34.89C16.3262 34.89 14.9592 33.5231 14.9592 31.8493C14.9592 31.5425 14.9592 30.6219 16.8562 27.637C17.0793 27.2464 17.5257 27.0233 17.972 27.0233C18.4463 27.0233 18.8647 27.2464 19.1437 27.637Z" fill="#FC633B"/>
<path d="M30.1325 27.637C32.0294 30.594 32.0294 31.5425 32.0294 31.8493C32.0294 33.5231 30.6625 34.89 28.9887 34.89C27.3149 34.89 25.948 33.5231 25.948 31.8493C25.948 31.5425 25.948 30.6219 27.8449 27.637C28.0681 27.2464 28.5145 27.0233 28.9608 27.0233C29.435 27.0233 29.8535 27.2464 30.1325 27.637Z" fill="#FC633B"/>
</svg>
