<svg width="198" height="28" viewBox="0 0 198 28" fill="none" xmlns="http://www.w3.org/2000/svg">
<path d="M64.8875 11.0936H58.5556C58.4711 10.4435 58.2981 9.85678 58.0363 9.33333C57.7746 8.80989 57.4285 8.36243 56.9979 7.99095C56.5673 7.61948 56.0565 7.33665 55.4655 7.14247C54.883 6.93985 54.2371 6.83853 53.528 6.83853C52.27 6.83853 51.1851 7.14669 50.2733 7.763C49.37 8.37932 48.6734 9.27001 48.1838 10.4351C47.7025 11.6002 47.4619 13.0101 47.4619 14.6649C47.4619 16.3872 47.7068 17.8308 48.1964 18.9959C48.6946 20.1526 49.3911 21.0264 50.286 21.6174C51.1894 22.1999 52.2573 22.4912 53.49 22.4912C54.1823 22.4912 54.8112 22.4025 55.3769 22.2252C55.951 22.0479 56.4533 21.7904 56.8839 21.4527C57.3229 21.1066 57.6817 20.6887 57.9603 20.199C58.2474 19.7009 58.4458 19.1395 58.5556 18.5147L64.8875 18.5527C64.7778 19.7009 64.4443 20.8322 63.8871 21.9466C63.3383 23.0611 62.5827 24.0784 61.6202 24.9986C60.6578 25.9104 59.4842 26.6365 58.0997 27.1768C56.7235 27.7172 55.1447 27.9873 53.3633 27.9873C51.0163 27.9873 48.9141 27.4723 47.0567 26.4423C45.2077 25.4039 43.7472 23.8927 42.675 21.9086C41.6027 19.9246 41.0666 17.51 41.0666 14.6649C41.0666 11.8112 41.6112 9.39243 42.7003 7.40841C43.7894 5.42439 45.2626 3.91738 47.12 2.88738C48.9774 1.85738 51.0585 1.34238 53.3633 1.34238C54.9337 1.34238 56.3858 1.56189 57.7197 2.00091C59.0537 2.43148 60.2272 3.06468 61.2403 3.9005C62.2534 4.72788 63.0766 5.74521 63.7098 6.95251C64.343 8.15981 64.7356 9.54018 64.8875 11.0936Z" fill="#1E252F"/>
<path d="M74.3106 16.5391V27.6327H68.118V1.69697H74.108V11.7521H74.3233C74.7623 10.5533 75.48 9.61616 76.4762 8.94075C77.4809 8.26534 78.7093 7.92764 80.1614 7.92764C81.5291 7.92764 82.7195 8.23157 83.7326 8.83944C84.7457 9.43887 85.5309 10.2874 86.0881 11.3849C86.6538 12.4824 86.9324 13.7657 86.9239 15.2347V27.6327H80.7313V16.4505C80.7397 15.3698 80.4696 14.5256 79.9208 13.9177C79.372 13.3098 78.5995 13.0059 77.6033 13.0059C76.9532 13.0059 76.3791 13.1494 75.881 13.4365C75.3913 13.7151 75.0072 14.1161 74.7286 14.6395C74.4584 15.163 74.3191 15.7962 74.3106 16.5391Z" fill="#1E252F"/>
<path d="M95.9165 27.962C94.6754 27.962 93.5737 27.7552 92.6112 27.3415C91.6572 26.9193 90.9016 26.2861 90.3444 25.4419C89.7956 24.5892 89.5212 23.5212 89.5212 22.2379C89.5212 21.1572 89.7112 20.2454 90.0911 19.5025C90.471 18.7595 90.9944 18.1559 91.6614 17.6915C92.3284 17.2272 93.0966 16.8768 93.9662 16.6404C94.8358 16.3956 95.7645 16.231 96.7523 16.1465C97.8583 16.0452 98.749 15.9397 99.4244 15.8299C100.1 15.7117 100.589 15.5471 100.893 15.336C101.206 15.1165 101.362 14.8084 101.362 14.4116V14.3483C101.362 13.6982 101.138 13.1958 100.691 12.8412C100.243 12.4867 99.6397 12.3094 98.8799 12.3094C98.0609 12.3094 97.4024 12.4867 96.9043 12.8412C96.4062 13.1958 96.0896 13.6855 95.9545 14.3103L90.243 14.1076C90.4119 12.9257 90.8467 11.8703 91.5474 10.9417C92.2566 10.0045 93.2275 9.27001 94.4601 8.73813C95.7012 8.1978 97.1913 7.92764 98.9305 7.92764C100.172 7.92764 101.316 8.07538 102.362 8.37087C103.409 8.65792 104.321 9.08005 105.098 9.63727C105.875 10.186 106.474 10.8615 106.896 11.6635C107.327 12.4656 107.542 13.3816 107.542 14.4116V27.6327H101.717V24.9227H101.565C101.218 25.5812 100.775 26.1384 100.235 26.5943C99.703 27.0502 99.074 27.3921 98.348 27.6201C97.6303 27.848 96.8199 27.962 95.9165 27.962ZM97.8287 23.9095C98.4957 23.9095 99.0951 23.7745 99.627 23.5043C100.167 23.2341 100.598 22.8627 100.919 22.3899C101.24 21.9086 101.4 21.3514 101.4 20.7182V18.8693C101.223 18.9622 101.007 19.0466 100.754 19.1226C100.509 19.1986 100.239 19.2703 99.9436 19.3379C99.6481 19.4054 99.3442 19.4645 99.0318 19.5152C98.7194 19.5658 98.4197 19.6122 98.1327 19.6545C97.5501 19.7473 97.052 19.8908 96.6383 20.085C96.2331 20.2792 95.9207 20.5325 95.7012 20.8449C95.4901 21.1488 95.3846 21.5118 95.3846 21.934C95.3846 22.5756 95.6126 23.0653 96.0685 23.403C96.5328 23.7407 97.1196 23.9095 97.8287 23.9095Z" fill="#1E252F"/>
<path d="M110.972 27.6327V8.18091H116.987V11.7268H117.19C117.544 10.4435 118.123 9.48952 118.925 8.86477C119.727 8.23157 120.66 7.91497 121.724 7.91497C122.011 7.91497 122.306 7.93608 122.61 7.97829C122.914 8.01206 123.197 8.06694 123.459 8.14292V13.5251C123.163 13.4238 122.775 13.3436 122.293 13.2845C121.821 13.2254 121.399 13.1958 121.027 13.1958C120.293 13.1958 119.63 13.3605 119.039 13.6897C118.456 14.0106 117.996 14.4622 117.658 15.0448C117.329 15.6189 117.165 16.2943 117.165 17.071V27.6327H110.972Z" fill="#1E252F"/>
<path d="M125.625 27.6327V8.18091H131.818V27.6327H125.625ZM128.728 5.91407C127.858 5.91407 127.111 5.62702 126.486 5.05292C125.862 4.47038 125.549 3.76964 125.549 2.9507C125.549 2.14021 125.862 1.44791 126.486 0.873814C127.111 0.291271 127.858 0 128.728 0C129.606 0 130.353 0.291271 130.969 0.873814C131.594 1.44791 131.907 2.14021 131.907 2.9507C131.907 3.76964 131.594 4.47038 130.969 5.05292C130.353 5.62702 129.606 5.91407 128.728 5.91407Z" fill="#1E252F"/>
<path d="M146.383 8.18091V12.7399H134.111V8.18091H146.383ZM136.682 3.52058H142.875V21.5161C142.875 21.896 142.934 22.2041 143.052 22.4405C143.179 22.6685 143.36 22.8331 143.597 22.9344C143.833 23.0273 144.116 23.0737 144.445 23.0737C144.681 23.0737 144.93 23.0526 145.192 23.0104C145.462 22.9597 145.665 22.9175 145.8 22.8838L146.737 27.3541C146.442 27.4386 146.024 27.5441 145.483 27.6707C144.952 27.7974 144.314 27.8776 143.571 27.9114C142.119 27.9789 140.874 27.81 139.835 27.4048C138.805 26.9911 138.016 26.3495 137.467 25.4799C136.927 24.6103 136.665 23.517 136.682 22.1999V3.52058Z" fill="#1E252F"/>
<path d="M149.186 27.6327V8.18091H155.378V27.6327H149.186ZM152.288 5.91407C151.419 5.91407 150.672 5.62702 150.047 5.05292C149.422 4.47038 149.11 3.76964 149.11 2.9507C149.11 2.14021 149.422 1.44791 150.047 0.873814C150.672 0.291271 151.419 0 152.288 0C153.166 0 153.913 0.291271 154.53 0.873814C155.155 1.44791 155.467 2.14021 155.467 2.9507C155.467 3.76964 155.155 4.47038 154.53 5.05292C153.913 5.62702 153.166 5.91407 152.288 5.91407Z" fill="#1E252F"/>
<path d="M168.043 28C165.992 28 164.232 27.5779 162.763 26.7336C161.302 25.8893 160.179 24.7158 159.394 23.213C158.609 21.7018 158.216 19.9542 158.216 17.9701C158.216 15.9777 158.609 14.2301 159.394 12.7273C160.188 11.216 161.315 10.0383 162.775 9.19403C164.244 8.34977 165.996 7.92764 168.031 7.92764C169.829 7.92764 171.395 8.25268 172.729 8.90276C174.071 9.55284 175.118 10.4731 175.87 11.6635C176.63 12.8455 177.031 14.2343 177.073 15.8299H171.285C171.167 14.8337 170.829 14.0528 170.272 13.4871C169.723 12.9215 169.006 12.6386 168.119 12.6386C167.402 12.6386 166.773 12.8412 166.232 13.2465C165.692 13.6433 165.27 14.2343 164.966 15.0194C164.671 15.7962 164.523 16.7586 164.523 17.9068C164.523 19.055 164.671 20.0259 164.966 20.8195C165.27 21.6047 165.692 22.1999 166.232 22.6052C166.773 23.002 167.402 23.2004 168.119 23.2004C168.693 23.2004 169.2 23.0779 169.639 22.8331C170.087 22.5883 170.454 22.2295 170.741 21.7567C171.028 21.2754 171.209 20.6929 171.285 20.009H177.073C177.014 21.6131 176.613 23.0146 175.87 24.2135C175.135 25.4123 174.101 26.3452 172.767 27.0122C171.442 27.6707 169.867 28 168.043 28Z" fill="#1E252F"/>
<path d="M196.868 14.1203L191.182 14.2723C191.122 13.867 190.962 13.5082 190.7 13.1958C190.439 12.875 190.097 12.626 189.675 12.4487C189.261 12.2629 188.78 12.1701 188.231 12.1701C187.513 12.1701 186.901 12.3136 186.395 12.6006C185.896 12.8877 185.652 13.276 185.66 13.7657C185.652 14.1456 185.804 14.4749 186.116 14.7535C186.437 15.0321 187.007 15.2558 187.826 15.4247L191.574 16.1339C193.516 16.5054 194.96 17.1217 195.905 17.9828C196.859 18.844 197.34 19.9837 197.349 21.4021C197.34 22.736 196.944 23.8969 196.159 24.8847C195.382 25.8725 194.318 26.6407 192.967 27.1895C191.616 27.7298 190.071 28 188.332 28C185.555 28 183.364 27.4301 181.76 26.2904C180.164 25.1422 179.252 23.6056 179.024 21.6807L185.141 21.5287C185.276 22.2379 185.626 22.7782 186.192 23.1497C186.758 23.5212 187.479 23.7069 188.358 23.7069C189.151 23.7069 189.797 23.5592 190.295 23.2637C190.793 22.9682 191.046 22.5756 191.055 22.0859C191.046 21.6469 190.852 21.2965 190.472 21.0348C190.092 20.7647 189.497 20.5536 188.687 20.4016L185.293 19.7558C183.343 19.4012 181.89 18.7469 180.936 17.7929C179.982 16.8304 179.51 15.6062 179.518 14.1203C179.51 12.8201 179.856 11.7099 180.557 10.7897C181.257 9.861 182.253 9.15182 183.545 8.66214C184.837 8.17247 186.361 7.92764 188.117 7.92764C190.751 7.92764 192.828 8.48063 194.348 9.58661C195.867 10.6842 196.707 12.1954 196.868 14.1203Z" fill="#1E252F"/>
<path d="M30.296 3.50209C29.4108 2.2814 28.4331 1.36713 27.3905 0.785099C26.3924 0.227774 25.3262 -0.0349005 24.2223 0.00379107C22.058 0.0801214 19.8227 1.29257 17.5788 3.60778C16.9183 4.28908 16.3556 4.96646 15.9151 5.53845C15.4747 4.96646 14.912 4.28946 14.2511 3.60778C12.0072 1.29257 9.77229 0.0801214 7.60793 0.00379107C6.50373 -0.0352766 5.43786 0.227774 4.43974 0.785099C3.39679 1.36713 2.41913 2.2814 1.53388 3.50209C0.45187 4.99406 -0.0624033 6.56922 0.0060308 8.18449C0.0658919 9.60085 0.556886 11.0183 1.50662 12.5171C3.13873 15.0925 5.86215 17.4651 8.49638 19.7595C11.1818 22.0987 15.2829 25.9364 16.0559 28C16.0603 27.9892 20.648 22.0987 23.3335 19.7595C25.9676 17.4651 28.6914 15.0925 30.3232 12.5171C31.2733 11.0183 31.7639 9.60085 31.8238 8.18449C31.8923 6.56922 31.378 4.9941 30.296 3.50209ZM15.9127 26.1583C15.9143 26.1621 15.9151 26.164 15.9151 26.164C15.9142 26.1659 15.9131 26.1602 15.9127 26.1583ZM16.9198 9.3538C13.5165 9.78141 10.1532 11.1805 11.2893 14.417C12.52 17.9228 15.0694 24.121 15.7467 25.758C12.8105 19.3481 -3.38029 12.4136 2.54919 4.23858C8.54691 -4.03026 15.7739 7.48492 15.9151 7.71105C16.0559 7.48492 23.2833 -4.03026 29.2806 4.23858C33.5792 10.165 23.81 8.48808 16.9198 9.3538Z" fill="#EB5310"/>
</svg>
