<svg width="36" height="36" viewBox="0 0 36 36" fill="none" xmlns="http://www.w3.org/2000/svg">
<g clip-path="url(#clip0_90_270)">
<path d="M18.0603 12.5596C18.5557 12.5596 18.957 12.1581 18.957 11.6629C18.957 11.1677 18.5557 10.7661 18.0603 10.7661C14.0983 10.7661 10.8865 13.978 10.8865 17.9402C10.8865 21.9021 14.0983 25.114 18.0603 25.114C22.0225 25.114 25.2343 21.9021 25.2343 17.9402C25.2343 17.4447 24.8328 17.0434 24.3376 17.0434C23.8424 17.0434 23.4408 17.4447 23.4408 17.9402C23.4408 20.9117 21.0321 23.3207 18.0603 23.3207C15.0887 23.3207 12.6797 20.9117 12.6797 17.9402C12.6797 14.9684 15.0887 12.5596 18.0603 12.5596Z" fill="#1E252F"/>
<path d="M35.1702 12.6138C35.0145 12.1433 34.5069 11.8882 34.0361 12.0439C33.5764 12.196 33.3204 12.6855 33.4574 13.1499C36.1392 21.6899 31.3904 30.7868 22.8504 33.4686C14.3108 36.1503 5.21382 31.4015 2.53206 22.8616C-0.149972 14.3216 4.59914 5.22468 13.1388 2.54292C16.3001 1.55031 19.6894 1.55031 22.8504 2.54292C23.325 2.68602 23.8257 2.4174 23.9688 1.94279C24.1097 1.47532 23.8513 0.981215 23.3868 0.830153C13.9043 -2.14494 3.8051 3.13041 0.830007 12.6132C-2.14509 22.0958 3.13054 32.195 12.6131 35.1701C22.0959 38.1452 32.1948 32.8698 35.1699 23.387C36.2702 19.8801 36.2702 16.1206 35.1702 12.6138Z" fill="#1E252F"/>
<path d="M19.768 6.4068C19.7727 5.89621 19.3805 5.46939 18.8713 5.43121C18.6035 5.40842 18.3354 5.38562 18.0605 5.38562C11.1267 5.38562 5.50586 11.0065 5.50586 17.9402C5.50586 24.8737 11.1267 30.4946 18.0605 30.4946C24.9939 30.4946 30.6148 24.8737 30.6148 17.9402C30.6148 17.6159 30.595 17.2918 30.5552 16.9699C30.4835 16.4777 30.0265 16.1368 29.5343 16.2085C29.0421 16.2799 28.7013 16.7372 28.7727 17.2294C28.7754 17.2481 28.7787 17.2665 28.7826 17.2852C28.8021 17.5024 28.8213 17.7178 28.8213 17.9397C28.8216 23.883 24.0038 28.7008 18.0607 28.7013C12.1174 28.7016 7.29965 23.8836 7.29938 17.9405C7.2991 11.9975 12.1166 7.17941 18.0599 7.17914H18.0602C18.2827 7.17914 18.4983 7.19836 18.715 7.21759L18.8831 7.2316C19.3516 7.25165 19.7477 6.888 19.7675 6.41943C19.7677 6.41504 19.7677 6.41092 19.768 6.4068Z" fill="#1E252F"/>
<path d="M23.4408 8.07586V11.2916L17.4264 17.306C17.0701 17.6502 17.0602 18.2179 17.4044 18.5741C17.7485 18.9303 18.3162 18.9402 18.6725 18.5961C18.6799 18.5889 18.6873 18.5815 18.6944 18.5741L24.7089 12.5596H27.9246C28.1625 12.5596 28.3904 12.4652 28.5588 12.2968L33.9391 6.91625C34.2892 6.56606 34.2892 5.99835 33.9391 5.64816C33.771 5.48007 33.543 5.38558 33.3051 5.38558H30.6149V2.69531C30.6149 2.2001 30.2133 1.79855 29.7178 1.79883C29.4803 1.79883 29.2523 1.89331 29.0842 2.0614L23.7037 7.44195C23.5353 7.61004 23.4408 7.838 23.4408 8.07586ZM25.2343 8.4472L28.8214 4.86016V6.28234C28.8214 6.77755 29.2229 7.1791 29.7181 7.1791H31.1403L27.5533 10.7661H25.2343V8.4472Z" fill="#1E252F"/>
</g>
<defs>
<clipPath id="clip0_90_270">
<rect width="36" height="36" fill="white"/>
</clipPath>
</defs>
</svg>
