<svg width="36" height="32" viewBox="0 0 36 32" fill="none" xmlns="http://www.w3.org/2000/svg">
<path d="M30.4077 8.35291L32.6772 4.79677L34.4555 5.93168L32.186 9.48781L30.4077 8.35291Z" fill="#122F2A"/>
<path d="M23.9551 5.49402L25.3078 1.50323L27.3055 2.18038L25.9528 6.17117L23.9551 5.49402Z" fill="#122F2A"/>
<path d="M16.9438 0.412842H19.0533V4.63183H16.9438V0.412842Z" fill="#122F2A"/>
<path d="M8.69873 2.16943L10.6964 1.49229L12.0492 5.48307L10.0515 6.16022L8.69873 2.16943Z" fill="#122F2A"/>
<path d="M1.54102 5.93567L3.31932 4.80076L5.58883 8.35689L3.81053 9.4918L1.54102 5.93567Z" fill="#122F2A"/>
<path d="M35.4453 17.9517L36 17.2654L35.4224 16.5983C35.3444 16.5082 33.4764 14.3666 30.4148 12.2077C26.3218 9.32154 22.0284 7.79602 17.9987 7.79602C13.9686 7.79602 9.67864 9.32175 5.59234 12.2083C2.53582 14.3674 0.672858 16.5094 0.595018 16.5994L0 17.2887L0.595018 17.978C0.672858 18.0681 2.53582 20.21 5.59234 22.3692C9.67857 25.2557 13.9686 26.7815 17.9987 26.7815C20.0128 26.7815 22.0899 26.4082 24.1873 25.6731C24.3261 25.9216 24.5002 26.1555 24.7111 26.3665L29.9318 31.5872L34.4067 27.1123L30.015 22.7206C33.4074 20.4486 35.3558 18.0625 35.4453 17.9517ZM21.7278 18.9083C19.6716 20.9646 16.3258 20.9646 14.2696 18.9083C13.2735 17.9122 12.725 16.5879 12.725 15.1793C12.725 13.7706 13.2735 12.4463 14.2696 11.4502C15.2977 10.4221 16.6482 9.90798 17.9987 9.90798C19.3492 9.90798 20.6997 10.4221 21.7278 11.4502C22.7239 12.4463 23.2724 13.7706 23.2724 15.1793C23.2724 16.5879 22.7239 17.9122 21.7278 18.9083ZM6.85318 20.677C5.00442 19.3762 3.60484 18.0612 2.84177 17.2887C3.60499 16.5161 5.00463 15.201 6.85318 13.9004C8.16698 12.976 9.85338 11.9619 11.7857 11.1866C11.0241 12.3666 10.6155 13.7414 10.6155 15.1792C10.6155 17.1513 11.3835 19.0054 12.778 20.3999C14.2174 21.8392 16.108 22.5589 17.9987 22.5589C19.5568 22.5589 21.1146 22.0696 22.4201 21.0922L24.0936 22.7656C23.9729 23.0189 23.8878 23.2849 23.8382 23.5563C21.8459 24.296 19.8843 24.6719 17.9987 24.6719C13.4795 24.672 9.44329 22.4995 6.85318 20.677ZM29.9318 28.6039L26.2027 24.8748C25.7915 24.4636 25.7915 23.7944 26.2027 23.3831C26.6149 22.971 27.2821 22.971 27.6944 23.3831L31.4234 27.1122L29.9318 28.6039ZM28.3474 21.29C27.4631 20.8532 26.4356 20.865 25.5838 21.2727L23.9124 19.6014C24.8659 18.3318 25.3819 16.7953 25.3819 15.1793C25.3819 13.7407 24.9728 12.3653 24.2105 11.1849C26.147 11.9606 27.838 12.9757 29.1555 13.901C31.0215 15.2117 32.4316 16.5369 33.1928 17.307C32.3516 18.1946 30.6737 19.8072 28.3474 21.29Z" fill="#122F2A"/>
<path d="M17.9987 12.015C16.254 12.015 14.8345 13.4345 14.8345 15.1793C14.8345 16.924 16.254 18.3435 17.9987 18.3435C19.7435 18.3435 21.163 16.924 21.163 15.1793C21.163 13.4345 19.7435 12.015 17.9987 12.015ZM17.9987 16.234C17.4171 16.234 16.944 15.7608 16.944 15.1793C16.944 14.5977 17.4171 14.1245 17.9987 14.1245C18.5803 14.1245 19.0535 14.5977 19.0535 15.1793C19.0535 15.7608 18.5803 16.234 17.9987 16.234Z" fill="#122F2A"/>
</svg>
